<svg xmlns="http://www.w3.org/2000/svg" width="20" height="20" viewBox="0 0 20 20">
  <defs>
    <style>
      .cls-1 {
        fill: #cdbe91;
        fill-rule: evenodd;
      }

      .cls-2 {
        fill: none;
        stroke: #cdbe91;
        stroke-width: 1px;
      }
    </style>
  </defs>
  <path class="cls-1" d="M12.247,8.382V7.959c0-.446-0.128-0.6-0.425-0.6-0.325,0-.453.158-0.453,0.632v3.989c0,0.487.113,0.671,0.453,0.671,0.283,0,.425-0.184.425-0.644V8.379L14,8.347,14,11.8v0.061A1.909,1.909,0,0,1,11.836,14a1.973,1.973,0,0,1-2.247-2.2V8.091A1.957,1.957,0,0,1,11.822,6,1.891,1.891,0,0,1,14,8.065V8.382M6.551,11.8v2.2H8.278V11.8l0-3.414V6.725h0V6.211l-1.743,0L6,7.238H6.553V8.382Z"/>
  <circle class="cls-2" cx="10" cy="10" r="9"/>
</svg>
