<svg id="Layer_1" data-name="Layer 1" xmlns="http://www.w3.org/2000/svg" viewBox="0 0 318.31 398"><defs><style>.cls-1{fill:#cdbe91;}</style></defs><path class="cls-1" d="M208.86,313.1l-18.33-33.39v-73l-17-27.83s-12.11.66-19.31,0v27.17A35.61,35.61,0,0,0,166,211c-.33.33,0,33.72,0,33.72s-9.82-20.95-17-22.26c-.33,0-83.15-50.08-61.87-134.21,1.31,1,24.22,26.19,24.22,26.19h43.21l-12.76,15.38S136.19,171,190.2,157.94c-.65,0,0-17.35,0-17.35l-15.38-13.74,14.73-17s0-6.87-36.34-19.64c-.65,0,34-3.27,46.16-36,.24,0,5.51-15.25,8.22-23.17L207.4,4H178L159.33,22.65s-64.1-.59-64.68,0C78.33,22.65,79.5,25,79.5,25S59.68,50,57.94,51.2C46.86,61.11,48,68.68,48,68.68s61.19,216.78,60.6,216.19c4.66,5.25,53,44.29,53.61,44.87C172.73,348.39,204.78,402,204.78,402h5.53l-.65-88.9Z" transform="translate(-47.99 -4)"/><path class="cls-1" d="M205.44,313.1l18.33-33.39v-73l17-27.83s12.11.66,19.31,0v27.17A35.61,35.61,0,0,1,248.32,211c.33.33,0,33.72,0,33.72s9.82-20.95,17-22.26c.33,0,83.15-50.08,61.87-134.21-1.31,1-24.22,26.19-24.22,26.19H259.78l12.76,15.38s5.57,41.25-48.44,28.15c.65,0,0-17.35,0-17.35l15.38-13.74-14.73-17s0-6.87,36.34-19.64c.65,0-34-3.27-46.16-36-.24,0-5.51-15.25-8.22-23.17l.19-27h29.42L255,22.65s64.1-.59,64.68,0C336,22.65,334.8,25,334.8,25S354.62,50,356.36,51.2c11.08,9.91,9.91,17.48,9.91,17.48s-61.19,216.78-60.6,216.19c-4.66,5.25-53,44.29-53.61,44.87C241.57,348.39,209.52,402,209.52,402H204l.65-88.9Z" transform="translate(-47.99 -4)"/></svg>