<svg id="Layer_1" data-name="Layer 1" xmlns="http://www.w3.org/2000/svg" viewBox="0 0 15.86 19.02"><defs><style>.cls-1{fill:#cdbe91;}</style></defs><path class="cls-1" d="M9.15,15.6S7.82,15.73,7.49,14c0,0,0-.14.28-.37,0,0,.05,0-.33,0,0,0-.17,0,0-.15,0,0,.6-.36.55-.14,0,0-.17.56-.17.56a2,2,0,0,0,.41,1.38s0,0,0-.21a2.55,2.55,0,0,1,.18-.4,1.19,1.19,0,0,0,.19-1.13,1.6,1.6,0,0,0-1-1.1s-.22-.08-.34,0a4.41,4.41,0,0,0-.77.43l-.09-.36a2.1,2.1,0,0,0-.17.41s-.16.24-.2.24H6a5.35,5.35,0,0,0-2.06-1.75s-.59-.32-.72-.73a1.8,1.8,0,0,0-.11-.33l-.3-.19s-.7-.5-.73-.5a1.57,1.57,0,0,0,.07.63,7.4,7.4,0,0,1,0,1,5.5,5.5,0,0,0,.31,1.7A1.64,1.64,0,0,1,2.64,14l-.26.47.41-.34s0,.09.84,1l-.1.88L4,15.42l.23.2A2,2,0,0,0,5.52,15s.09,0,0,.24l.26-.09.31.14.14.44.22-.21.1.2a1.38,1.38,0,0,1-1.13-.06,2.49,2.49,0,0,0,1,1s2.79.21,3.83,2c0,0,1.51,1.42,2.93.56A9.22,9.22,0,0,1,9.15,15.6ZM4.29,14.53l0-.49s-.3.38-.31.35a2.18,2.18,0,0,1-.67-.84l.12-.48s-.28.15-.29.12A3.36,3.36,0,0,1,3,11.63a.58.58,0,0,1,.35,0c2.16,1.4,2,2.33,2,2.33v0C5.25,14.28,4.29,14.53,4.29,14.53Z" transform="translate(-2.07 -0.49)"/><path class="cls-1" d="M9.91,5.61,9,4.82l1-2.11,0,0V.49c-.11,0-1.91,4-1.94,4.07a1.89,1.89,0,0,1-.94.68,1.11,1.11,0,0,0,1.16.64s0,.59,0,.63A1.66,1.66,0,0,1,6.49,8a.93.93,0,0,1-1-1c.09-.59.77-.9.79-.92-2.88-2.79-3-4.4-3-4.37a23.46,23.46,0,0,0,.92,4.87A4.34,4.34,0,0,1,4.4,8.8c-.27,1,.26,1.1.26,1.12A14.68,14.68,0,0,1,10,8.82V5.58Z" transform="translate(-2.07 -0.49)"/><path class="cls-1" d="M16.57,1.66s-.15,1.58-3,4.37c0,0,.7.33.79.92a.93.93,0,0,1-.94,1,1.66,1.66,0,0,1-1.74-1.45s0-.63,0-.63a1.11,1.11,0,0,0,1.16-.64,1.89,1.89,0,0,1-.94-.68S10,.47,9.91.49V2.76l0,0,1,2.09-1,.81V8.82a14.65,14.65,0,0,1,5.3,1.1s.53-.11.26-1.12a4.46,4.46,0,0,1,.18-2.27A23.46,23.46,0,0,0,16.57,1.66Z" transform="translate(-2.07 -0.49)"/><path class="cls-1" d="M9.08,17.7a7.72,7.72,0,0,1-2.32,1.53c1.42.86,2.92-.52,2.93-.56l.16-.24A3.18,3.18,0,0,0,9.08,17.7Z" transform="translate(-2.07 -0.49)"/><path class="cls-1" d="M17.92,9.57s-.72.48-.73.5l-.3.19a1.8,1.8,0,0,0-.11.33c-.13.41-.73.72-.72.73A5.35,5.35,0,0,0,14,13.07h0s-.2-.24-.2-.24a2.1,2.1,0,0,0-.17-.41l-.09.36a4.41,4.41,0,0,0-.77-.43c-.12-.08-.33,0-.34,0a1.6,1.6,0,0,0-1,1.1,1.19,1.19,0,0,0,.19,1.13,2.55,2.55,0,0,1,.18.4c-.06.24,0,.19,0,.21a2,2,0,0,0,.41-1.38s-.18-.56-.17-.56c0-.22.55.13.55.14.17.14,0,.15,0,.15-.38,0-.33,0-.33,0,.26.23.28.36.28.37-.33,1.78-1.66,1.65-1.66,1.65a8.35,8.35,0,0,1-.7,1,7.06,7.06,0,0,0,.77.9,6.94,6.94,0,0,1,2.6-.83,2.49,2.49,0,0,0,1-1,1.38,1.38,0,0,1-1.13.06l.1-.2.22.21.14-.44.31-.14.26.09c-.07-.21,0-.23,0-.24a2,2,0,0,0,1.3.62l.23-.2.46.53-.1-.88c.86-.9.84-1,.84-1l.41.34L17.36,14a1.64,1.64,0,0,1,.16-1.1,5.5,5.5,0,0,0,.31-1.7,7.4,7.4,0,0,1,0-1A1.57,1.57,0,0,0,17.92,9.57Zm-1.09,3.62s-.29-.12-.29-.12l.12.48a2.18,2.18,0,0,1-.67.84s-.31-.35-.31-.35l0,.49s-1-.25-1-.53v0s-.21-.93,2-2.33a.58.58,0,0,1,.35,0A3.36,3.36,0,0,1,16.83,13.19Z" transform="translate(-2.07 -0.49)"/></svg>