<svg xmlns="http://www.w3.org/2000/svg" width="128" height="128" viewBox="0 0 128 128">
  <metadata><?xpacket begin="﻿" id="W5M0MpCehiHzreSzNTczkc9d"?>
<x:xmpmeta xmlns:x="adobe:ns:meta/" x:xmptk="Adobe XMP Core 5.6-c138 79.159824, 2016/09/14-01:09:01        ">
   <rdf:RDF xmlns:rdf="http://www.w3.org/1999/02/22-rdf-syntax-ns#">
      <rdf:Description rdf:about=""/>
   </rdf:RDF>
</x:xmpmeta>
                                                                                                    
                                                                                                    
                                                                                                    
                                                                                                    
                                                                                                    
                                                                                                    
                                                                                                    
                                                                                                    
                                                                                                    
                                                                                                    
                                                                                                    
                                                                                                    
                                                                                                    
                                                                                                    
                                                                                                    
                                                                                                    
                                                                                                    
                                                                                                    
                                                                                                    
                                                                                                    
                           
<?xpacket end="w"?></metadata>
<defs>
    <style>
      .cls-1 {
        fill: #cdbe91;
        fill-rule: evenodd;
      }
    </style>
  </defs>
  <path id="Helmet" class="cls-1" d="M93.143,53.25C93.143,31.768,64,24,64,24S34.857,31.745,34.857,53.25,34.906,77.506,30,82.5c0,0,6.984,19.5,24.286,19.5,0,0-4.857-4.8-4.857-29.25,0,0-9.714-2.08-9.714-19.5C52.051,53.25,59.143,63,59.143,63V82.5L64,87.375,68.857,82.5V63a24.269,24.269,0,0,1,19.429-9.75c0,17.166-9.714,19.5-9.714,19.5,0,24.35-4.857,29.25-4.857,29.25C91.016,102,98,82.5,98,82.5,92.711,77.115,93.143,74.732,93.143,53.25Z"/>
</svg>
