<svg id="Layer_1" data-name="Layer 1" xmlns="http://www.w3.org/2000/svg" viewBox="0 0 128 128"><defs><style>.cls-1{fill: #cdbe91;}</style></defs><title>MissionIcon_Clash</title><path class="cls-1" d="M64.06,73.93S76.75,67.09,75.71,46.1a19.27,19.27,0,0,1-11.65,3.54,19.37,19.37,0,0,1-11.73-3.58C51.29,67.09,64.06,73.93,64.06,73.93Z"/><path class="cls-1" d="M47.44,61.57A22.39,22.39,0,0,1,46,56.79l4.53,2.43A45.22,45.22,0,0,1,49.15,52c-2.59-1.47-5.49-3.34-8-4.93l-5.52-4v1.16c0,2.22.31,4.45.31,6.68l.24.59c1.36,14.88,9.91,28.76,36.35,39.21a11.94,11.94,0,0,1-8.47,2.43,14.57,14.57,0,0,1-7.95-2.39c1.79-.79,3.42-1.71,5.09-2.34a86.73,86.73,0,0,1-8-4.38,83.16,83.16,0,0,1-9.1,3.07,22.71,22.71,0,0,0,19.88,13,22.78,22.78,0,0,0,19.88-13S55,79.9,47.44,61.57Z"/><path class="cls-1" d="M80.92,60.65A34.56,34.56,0,0,1,67.2,76.56a72.85,72.85,0,0,0,7.32,3.58C90.19,69.56,92.33,56.28,92.33,43c0,0-7.59,5.17-13.36,8.63a40.73,40.73,0,0,1-1.31,7.2l4.49-2.34A38.94,38.94,0,0,1,80.92,60.65Z"/><path class="cls-1" d="M57.54,45.22a25.41,25.41,0,0,0,13,0c-3.74-3.1.4-4.45,1.47-7.51s-1.51-4.34-4-7.32-3.11-4.89-1.87-7.28a7,7,0,0,0-3.3,7c.91,2.43,2,5.65-1.43,5.81s-2.91-4-2.91-4A9.35,9.35,0,0,0,56.66,43,8.31,8.31,0,0,1,57.54,45.22Z"/></svg>