<svg id="Layer_1" data-name="Layer 1" xmlns="http://www.w3.org/2000/svg" viewBox="0 0 351.26 385.98"><defs><style>.cls-1{fill:#cdbe91;}</style></defs><path class="cls-1" d="M205.07,127.63c-7.78,10.19-14.59,24.08-14.1,22.69-5.35,6-16.53,10.65-18.47,11.58,5.34-14.36-21.39-44.46-22.37-44,1.46,9.27-16.52,29.18-15.55,28.71-32.09-6.94-40.35-43.52-40.84-44C137.49,44.74,88.4,10.47,87.42,10,101,41,63.12,67.43,63.12,67.89,29.58,95.21,32,121.61,31.52,122.07c43.27-29.17,59.31,29.64,56.88,30.1,1.45,29.64-36,18.52-35.49,19.45-2.43,4.17,36.94,40.75,36.46,41.21C86,161,122.42,173.47,121.45,174.4c-2.43,12,13.13,28.24,13.61,28.24-.48-1.38,6.81-19,6.81-19,12.64.46,22.85,7.41,22.85,8.33,2.43,5.1-4.86,20.84-5.35,21.77-6.81-6.48-13.13-10.19-13.13-11.12-9.23,8.8-13.61,18.53-13.61,19.45-1-8.33-18-25.93-19.44-26.39-14.59,20.84-10.7,48.16-10.7,49.08,12.64,14.82,7.3,26.4,8.27,26.86,37.43.93,50.07,24.08,49.58,23.62-14.58,20.84-8.75,20.37-8.26,21.3,16.53,8.33,21.87,28.71,20.9,28.71-3.89,12,6.81,30.56,6.81,31-1.46-5.55,7.29-21.3,7.29-20.37-.49,6,21.39,39.82,21.39,39.82V127.63ZM188.87,279C180.38,269.87,145,248.2,145,248.2c-8.49-9.08.71-30.75,0-33.55,3.54,7,27.59,30.06,27.59,30.06S190.9,281.14,188.87,279Z" transform="translate(-31.52 -10.01)"/><path class="cls-1" d="M205.83,127.88V396s21.88-33.8,21.39-39.82c0-.93,8.75,14.81,7.29,20.37,0-.46,10.7-19,6.81-31-1,0,4.37-20.38,20.9-28.71.49-.93,6.32-.47-8.26-21.31-.49.47,12.15-22.69,49.58-23.61,1-.46-4.37-12,8.27-26.86,0-.92,3.89-28.25-10.7-49.08-1.46.46-18.47,18.06-19.44,26.39,0-.93-4.38-10.65-13.61-19.45,0,.93-6.32,4.63-13.13,11.12-.49-.93-7.78-16.67-5.35-21.77,0-.92,10.21-7.87,22.85-8.33,0,0,7.29,17.59,6.81,19,.48,0,16-16.2,13.61-28.24-1-.93,35.48-13.43,32.08,38.43-.48-.46,38.89-37.05,36.46-41.21.49-.93-36.94,10.18-35.49-19.45-2.43-.46,13.61-59.27,56.88-30.1-.49-.46,1.94-26.86-31.6-54.18,0-.46-37.92-26.86-24.3-57.88-1,.46-50.07,34.73-6.32,92.61-.49.46-8.75,37-40.84,44,1,.46-17-19.45-15.55-28.71-1-.46-27.71,29.64-22.37,44-1.94-.92-13.12-5.55-18.47-11.57.49,1.39-6.32-12.51-14.1-22.69ZM241.71,245s24-23.06,27.59-30c-.71,2.79,8.49,24.46,0,33.55,0,0-35.38,21.67-43.87,30.75C223.4,281.38,241.71,245,241.71,245Z" transform="translate(-31.52 -10.01)"/></svg>