<svg xmlns="http://www.w3.org/2000/svg" width="20" height="20" viewBox="0 0 20 20">
  <defs>
    <style>
      .cls-1 {
        fill: #cdbe91;
        fill-rule: evenodd;
      }
    </style>
  </defs>
  <path id="FWoTD" class="cls-1" d="M7.476,2.136L7.186,1.3,6.207,1,5.9,2.012l0.254,0.8A7.045,7.045,0,0,1,7.476,2.136ZM14.1,2.012L13.793,1l-0.979.3-0.29.832a7.052,7.052,0,0,1,1.326.676ZM6,11.448l2.286,2.22H9.429V17h1.143V13.669h1.143L14,11.448H11.714V3.676L9.974,1.014,8.286,3.676v7.772H6ZM4.71,4.048a7.156,7.156,0,0,1,1.1-1L5.072,2.133l-1.024.044L4.093,3.235ZM3.483,5.974A7.128,7.128,0,0,1,4.338,4.5L3.774,3.8l-1.093.047L2.729,4.979ZM18.6,10.094L19,9.049l-0.787-.6-1.113.41a4.709,4.709,0,0,1,.046,1.313ZM15.29,4.048l0.618-.814,0.045-1.058-1.024-.044-0.736.916A7.154,7.154,0,0,1,15.29,4.048ZM17.1,8.856h0C17.094,8.875,17.095,8.869,17.1,8.856Zm0,0,0,0c0-.019,0-0.035,0-0.054A0.105,0.105,0,0,0,17.1,8.856ZM17.08,8.093l1.125-.657,0.331-1.083L17.49,6.03l-0.744.323A7.132,7.132,0,0,1,17.08,8.093ZM16.517,5.974l0.754-.995,0.048-1.132L16.226,3.8l-0.563.7A7.123,7.123,0,0,1,16.517,5.974ZM2.92,8.093a7.13,7.13,0,0,1,.334-1.739L2.51,6.03l-1.046.322L1.795,7.436ZM13,15.263l1.58,1.588h1.374l0.23-1.194-1.5-1.5A7.1,7.1,0,0,1,13,15.263ZM12,16l0.061,2h1.374l0.231-1.194-1.283-1.289A1.047,1.047,0,0,1,12,16Zm3.024-2.164,1.351,0.944h1.18V13.4l-1.47-.929A7.18,7.18,0,0,1,15.024,13.836ZM2.9,8.8c0,0.019,0,.035,0,0.054l0,0C2.9,8.827,2.9,8.761,2.9,8.8Zm13.936,1.911a7.09,7.09,0,0,1-.553,1.4l1.451,0.549,1.1-.423-0.6-1.139Zm-10.5,6.095L6.566,18H7.939S8,16,8.023,15.806c-0.786-.415-0.2-0.4-0.405-0.289ZM2.854,10.167A4.737,4.737,0,0,1,2.9,8.854l-1.112-.41L1,9.049l0.4,1.046Zm0.053-1.31h0C2.905,8.869,2.906,8.875,2.906,8.857Zm0.256,1.855-1.4.389-0.6,1.139,1.1,0.423,1.451-.549A7.086,7.086,0,0,1,3.162,10.711Zm2.151,3.441-1.5,1.5L4.047,16.85H5.421L7,15.263A7.1,7.1,0,0,1,5.313,14.153Zm-1.4-1.681-1.47.929v1.38h1.18l1.351-.944A7.15,7.15,0,0,1,3.915,12.471Z"/>
</svg>
