<?xml version="1.0" encoding="utf-8"?>
<!-- Generator: Adobe Illustrator 24.0.3, SVG Export Plug-In . SVG Version: 6.00 Build 0)  -->
<svg version="1.1" id="Layer_1" xmlns="http://www.w3.org/2000/svg" xmlns:xlink="http://www.w3.org/1999/xlink" x="0px" y="0px"
	 viewBox="0 0 414.3 406" style="enable-background:new 0 0 414.3 406;" xml:space="preserve">
<style type="text/css">
	.st0{fill:#CDBE91;}
</style>
<path class="st0" d="M224.4,353.9l-43.2-54.7c0,0,181.2,40.3,233-181.2c-2.9-2.9-14.4,20.1-14.4,20.1S365.3,2.9,189.8,0
	C187,0,348.1,20.1,359.6,187c2.9,0-54.7,34.5-54.7,34.5S345.2,69.1,152.5,5.8c0,0-146.7,46-143.9,212.9
	c0-2.9,14.4-149.6,184.1-166.9c0,0,37.4,28.8,40.3,54.7C233,103.6,54.7,95,0,276.2c0,2.9,17.3-20.1,17.3-20.1s37.4,158.2,210,149.6
	c2.9,0-143.9-17.3-172.6-187c0-2.9,51.8-40.3,51.8-40.3S92.1,353.9,256.1,397c2.9,2.9,152.5-23,155.4-215.8
	C411.4,181.3,397,333.7,224.4,353.9z M161.1,247.4c0,0-11.5-28.8,0-92.1c0,0,54.7-14.4,92.1,0c2.9,0,14.4,60.4,0,94.9
	C253.2,250.3,192.8,264.7,161.1,247.4z"/>
</svg>
