<svg id="highnoon_tracker_v1" data-name="highnoon tracker v1" xmlns="http://www.w3.org/2000/svg" viewBox="0 0 390.05 353.17"><defs><style>.cls-1{fill:#fff;}.cls-2{fill:#cdbe91;}</style></defs><path class="cls-1" d="M221.92,245.53h1a1.27,1.27,0,0,0,.58-.13,1.24,1.24,0,0,0,.48-.31,1.11,1.11,0,0,0,.31-.49,1.14,1.14,0,0,0,.13-.57l0-.4A1.56,1.56,0,0,0,224,243l-.3-.23a1.47,1.47,0,0,0-.76-.2h-1a1.14,1.14,0,0,0-.58.12,1.17,1.17,0,0,0-.48.31,1.11,1.11,0,0,0-.31.49,1.06,1.06,0,0,0-.13.58l.05.39a1.47,1.47,0,0,0,.39.67l.3.23a1.58,1.58,0,0,0,.76.21Z" transform="translate(-31.39 -85.23)"/><path class="cls-2" d="M225.71,162.4V383.2s1-19.35-14.33-56.34c0-.57.51-26.75-13.83-50.08,0-1.13-9.72-41-46.07-35.85-1,0-12.29,12.52-9.22,23.9,1,1.14-5.63-9.67-13.31-13.09,1-.56,3.58-18.21,3.58-18.21s27.14-22.76,31.75-31.86c-.52,1.14,21-46.67,39.93-52.92C201.65,151,221.1,161.83,225.71,162.4Z" transform="translate(-31.39 -85.23)"/><path class="cls-2" d="M225.71,388.32V438.4s-20-50.65-38.91-62c.51,1.14,5.12-6.26,4.61-21.63,1,1.14-.51-25-51.2-56.9.52-.57-8.19-9.11-8.7-10.81,0,0-3.07-13.66,3.07-22.77,1,1.14,10.24,10.25,10.24,10.25s9.73,12.52,17.92,15.93c0,1.14,24.06,0,28.67-7.4-1-.57,12.29,18.21,10.75,41,0-1.14,8.19,17.07,8.19,17.07v26.17S213.94,387.18,225.71,388.32Z" transform="translate(-31.39 -85.23)"/><path class="cls-2" d="M225.72,162.4V383.2s-1-19.35,14.34-56.34c0-.57-.51-26.75,13.82-50.08,0-1.13,9.73-41,46.08-35.85,1,0,12.29,12.52,9.21,23.9-1,1.14,5.64-9.67,13.32-13.09-1-.56-3.59-18.21-3.59-18.21s-27.13-22.76-31.74-31.86c.51,1.14-21-46.67-39.93-52.92C249.79,151,230.33,161.83,225.72,162.4Z" transform="translate(-31.39 -85.23)"/><path class="cls-2" d="M225.72,388.32V438.4s20-50.65,38.91-62c-.51,1.14-5.12-6.26-4.61-21.63-1,1.14.52-25,51.2-56.9-.51-.57,8.19-9.11,8.71-10.81,0,0,3.07-13.66-3.08-22.77-1,1.14-10.24,10.25-10.24,10.25S296.89,287,288.7,290.44c0,1.14-24.07,0-28.68-7.4,1-.57-12.28,18.21-10.75,41,0-1.14-8.19,17.07-8.19,17.07v26.17S237.5,387.18,225.72,388.32Z" transform="translate(-31.39 -85.23)"/><path class="cls-2" d="M179.55,160.43s-65.26,40.16-69.67,69.22c0-1.71-75-51.27-78.49-80.33.88,0,2.64-50.42,67.91-64.09.88,0-37.93,31.62-21.17,39.31,0,0,12.35,21.36,53.8,27.34C133.69,151.88,172.5,155.3,179.55,160.43Z" transform="translate(-31.39 -85.23)"/><path class="cls-2" d="M273.27,160.43s65.27,40.16,69.68,69.22c0-1.71,75-51.27,78.49-80.33-.88,0-2.65-50.42-67.91-64.09-.88,0,37.92,31.62,21.17,39.31,0,0-12.35,21.36-53.8,27.34C319.13,151.88,280.33,155.3,273.27,160.43Z" transform="translate(-31.39 -85.23)"/></svg>