<svg id="Layer_3" data-name="Layer 3" xmlns="http://www.w3.org/2000/svg" viewBox="0 0 404.92 340.25"><defs><style>.cls-1{fill:#cdbe91;}</style></defs><path class="cls-1" d="M175.85,134.47s-3.67-11-11-9.17c0,0-26.37,5.49-53.62,36.78.2.4-7.47,11.61-6.87,17.36.61,0-71.16-31.8-47.24-53,.31-.31,24.83-22.71,34.52-44.21.61-.61,1.82-45.42-25.73-49.36.3-.3,18.77,26.95-2.12,46.33-.31,0-20.29,21.2-46,36.94.3-.3-17.26,9.69-12.11,26.65-.31-.3,5.75,14.84,17.56,33.91.3,0,31.79,36.95,50.57,41.49.3,0,14.23,19.38,53.29,34.82-.6-.61,47.24,43.3,35.73,85.69.61.31-.3,4.55,21.2,23.32.3,0,8.27,13.15,26.69,10.81V184S192.35,182.14,175.85,134.47ZM160.37,264.22c-36.94-17.56-33.91-49.35-33.91-49.05,7.26,17.56,16.35,21.2,17.56,21.8,1.42-2.83-3.8-18.67-4.47-19.93l-.07,0c0-.06,0,0,.07,0C166.11,234.3,160.37,264.22,160.37,264.22Z" transform="translate(-4.69 -32.88)"/><path class="cls-1" d="M203.62,184V372.84C222,375.18,230,362,230.31,362c21.5-18.77,20.59-23,21.2-23.32C240,296.32,287.84,252.41,287.24,253c39.06-15.44,53-34.82,53.29-34.82,18.78-4.54,50.27-41.49,50.57-41.49,11.81-19.07,17.87-34.21,17.56-33.91,5.15-17-12.41-27-12.11-26.65-25.74-15.74-45.72-36.94-46-36.94-20.89-19.38-2.42-46.63-2.12-46.33-27.55,3.94-26.34,48.75-25.73,49.36,9.69,21.5,34.21,43.9,34.52,44.21,23.92,21.19-47.85,53-47.24,53,.6-5.75-7.07-17-6.87-17.36-27.25-31.29-53.62-36.78-53.62-36.78-7.34-1.83-11,9.17-11,9.17C222,182.14,203.62,184,203.62,184ZM274.75,217c.05-.09.07-.11.07,0l-.07,0c-.67,1.26-5.89,17.1-4.47,19.93,1.21-.6,10.3-4.24,17.56-21.8,0-.3,3,31.49-33.91,49.05C253.93,264.22,248.19,234.3,274.75,217Z" transform="translate(-4.69 -32.88)"/></svg>