<svg xmlns="http://www.w3.org/2000/svg" width="128" height="128" viewBox="0 0 128 128">
  <metadata><?xpacket begin="﻿" id="W5M0MpCehiHzreSzNTczkc9d"?>
<x:xmpmeta xmlns:x="adobe:ns:meta/" x:xmptk="Adobe XMP Core 5.6-c138 79.159824, 2016/09/14-01:09:01        ">
   <rdf:RDF xmlns:rdf="http://www.w3.org/1999/02/22-rdf-syntax-ns#">
      <rdf:Description rdf:about=""/>
   </rdf:RDF>
</x:xmpmeta>
                                                                                                    
                                                                                                    
                                                                                                    
                                                                                                    
                                                                                                    
                                                                                                    
                                                                                                    
                                                                                                    
                                                                                                    
                                                                                                    
                                                                                                    
                                                                                                    
                                                                                                    
                                                                                                    
                                                                                                    
                                                                                                    
                                                                                                    
                                                                                                    
                                                                                                    
                                                                                                    
                           
<?xpacket end="w"?></metadata>
<defs>
    <style>
      .cls-1 {
        fill: #cdbe91;
        fill-rule: evenodd;
      }
    </style>
  </defs>
  <path class="cls-1" d="M64,18a45.994,45.994,0,1,0,46.013,45.994A46.055,46.055,0,0,0,64,18Zm38.967,32.249H78.354V39.983a27.451,27.451,0,0,1,6.014,4.825h8.886A34.388,34.388,0,0,0,76.018,31.168L71.328,29.5V57.27h33.446A37.685,37.685,0,0,1,105,62H66V23A40.837,40.837,0,0,1,102.968,50.247ZM23.229,57.27H56.843V29.48l-4.7,1.693A34.411,34.411,0,0,0,35,44.807h8.879a27.506,27.506,0,0,1,5.939-4.8V50.247H25.034A40.794,40.794,0,0,1,62,23V62H23A37.549,37.549,0,0,1,23.229,57.27Zm1.8,20.439H49.816V87.974a27.43,27.43,0,0,1-5.986-4.8H34.936A34.394,34.394,0,0,0,52.153,96.79l4.69,1.667V70.686H23.224A37.3,37.3,0,0,1,23,66H62v39A40.809,40.809,0,0,1,25.025,77.71ZM66,105V66h39a37.378,37.378,0,0,1-.221,4.686H71.328V98.478l4.7-1.694A34.421,34.421,0,0,0,93.153,83.177H84.267a27.5,27.5,0,0,1-5.912,4.77V77.71h24.624A40.854,40.854,0,0,1,66,105Z"/>
</svg>
