<svg id="Layer_3" data-name="Layer 3" xmlns="http://www.w3.org/2000/svg" viewBox="0 0 16.79 16.89"><defs><style>.cls-1{fill:#cdbe91;}</style></defs><title>MissionTracker_MK-2019</title><path class="cls-1" d="M10,12.39v-.83A2.34,2.34,0,0,1,8.88,9.79v1.47Z" transform="translate(-1.57 -1.3)"/><path class="cls-1" d="M8.82,11.3,8.76,9.85l-1.44-.7-.16,0,.14.93-.46-.34-.22-.91-5-2.43L10,13.05v-.47S9.5,12.07,8.82,11.3Z" transform="translate(-1.57 -1.3)"/><polygon class="cls-1" points="5.52 8.33 5.5 9.16 5.35 8.99 3.31 0 5.01 4.8 4.97 5.76 5.52 8.33"/><path class="cls-1" d="M10,13.17s-.78-.65-.81-.65H9l-.22.08-.94-.08-.75-1,0-.13-.38-.22,0,.27.1.28,1,1.39,1,.33.73-.33Z" transform="translate(-1.57 -1.3)"/><path class="cls-1" d="M3.71,8.64l5,3.85L5.88,10.76l-.18.62S6.45,13.53,7.22,14c0,0,.3,2.74.3,2.74a5.47,5.47,0,0,1-1.76-2.82,18.67,18.67,0,0,1-1.24-1.56,3.83,3.83,0,0,1-.06-1.66,4.41,4.41,0,0,1,0-.63Z" transform="translate(-1.57 -1.3)"/><path class="cls-1" d="M7.24,11.42s.59.88.64.88l1.08,0Z" transform="translate(-1.57 -1.3)"/><path class="cls-1" d="M6.64,12.33l1.07,1.18,1.12.27.71-.24.49.07v3.12h-.4l-.24-.24L9.14,16,9,16.18s-1.1-1-1.09-1-.12-1-.12-1a3.43,3.43,0,0,1-1.23-1.51A1.46,1.46,0,0,1,6.64,12.33Z" transform="translate(-1.57 -1.3)"/><path class="cls-1" d="M10,2.91v8.42A2.19,2.19,0,0,1,9,9.77a13.29,13.29,0,0,0-1.75-.9L6.88,7.23l.69-.42a11.83,11.83,0,0,1-.12-2.32A5.18,5.18,0,0,1,10,2.91Z" transform="translate(-1.57 -1.3)"/><path class="cls-1" d="M6,6.15s-.27.34-.4.46a7.33,7.33,0,0,0-1.51.6s-.19.42-.13.42S6.64,8.87,6.64,8.87Z" transform="translate(-1.57 -1.3)"/><polygon class="cls-1" points="2.96 12.81 5.2 15.94 5.32 15.97 6.32 16.11 7.55 16.89 4.82 13.08 4.11 13.02 3.35 12.35 3.32 12.33 2.96 12.81"/><path class="cls-1" d="M9.93,12.39v-.83a2.32,2.32,0,0,0,1.12-1.77v1.47Z" transform="translate(-1.57 -1.3)"/><path class="cls-1" d="M11.11,11.3l.06-1.45,1.45-.7.16,0-.14.93.45-.34.22-.91,5-2.43L9.91,13.05v-.47S10.44,12.07,11.11,11.3Z" transform="translate(-1.57 -1.3)"/><polygon class="cls-1" points="11.26 8.33 11.28 9.16 11.44 8.99 13.48 0 11.78 4.8 11.82 5.76 11.26 8.33"/><path class="cls-1" d="M9.91,13.17s.78-.65.81-.65h.2l.21.08.94-.08.76-1,0-.13.37-.22,0,.27-.1.28-1,1.39-1,.33-.73-.33Z" transform="translate(-1.57 -1.3)"/><path class="cls-1" d="M16.22,8.64l-5,3.85,2.85-1.73.18.62s-.74,2.15-1.51,2.63c0,0-.3,2.74-.3,2.74a5.42,5.42,0,0,0,1.75-2.82s1-1.16,1.25-1.56a3.83,3.83,0,0,0,.06-1.66,4.41,4.41,0,0,0,0-.63Z" transform="translate(-1.57 -1.3)"/><path class="cls-1" d="M12.69,11.42s-.58.88-.64.88l-1.07,0Z" transform="translate(-1.57 -1.3)"/><path class="cls-1" d="M13.29,12.33l-1.07,1.18-1.11.27-.71-.24-.49.07v3.12h.4l.23-.24L10.8,16l.19.17s1.1-1,1.08-1,.12-1,.12-1a3.39,3.39,0,0,0,1.24-1.51A1.46,1.46,0,0,0,13.29,12.33Z" transform="translate(-1.57 -1.3)"/><path class="cls-1" d="M9.94,2.91v8.42a2.22,2.22,0,0,0,1-1.56,12.62,12.62,0,0,1,1.74-.9l.37-1.64-.68-.42a11.16,11.16,0,0,0,.11-2.32A5.18,5.18,0,0,0,9.94,2.91Z" transform="translate(-1.57 -1.3)"/><path class="cls-1" d="M13.93,6.15s.28.34.4.46a7.36,7.36,0,0,1,1.52.6s.19.42.12.42S13.3,8.87,13.3,8.87Z" transform="translate(-1.57 -1.3)"/><polygon class="cls-1" points="13.46 12.33 13.43 12.35 12.67 13.02 11.96 13.08 9.23 16.89 10.46 16.11 11.46 15.97 11.58 15.94 13.82 12.81 13.46 12.33"/><ellipse class="cls-1" cx="4.39" cy="7.33" rx="1.62" ry="1.79"/><ellipse class="cls-1" cx="12.38" cy="7.33" rx="1.62" ry="1.79"/><ellipse class="cls-1" cx="8.36" cy="7.32" rx="4.34" ry="4.51"/></svg>