<svg id="Layer_1" data-name="Layer 1" xmlns="http://www.w3.org/2000/svg" viewBox="0 0 329.76 390.44"><defs><style>.cls-1{fill:#cdbe91;}</style></defs><g id="Tracker"><path class="cls-1" d="M293,151.33C260,50.13,211.88,7.07,210.44,7.79,146.57,57.31,122.17,149.18,120,151.33c46.65,53.11,45.22,91.15,45.22,91.15C178.86,262.57,232,288.41,232,288.41,262.12,176.45,293.7,151.33,293,151.33Zm-76.8,101.2s-17.94-1.44-24.4-11.49c-1.43,0-6.46-101.19-43.78-114.11.72,0,35.89-51,35.89-51l23.68,42.35,18.66-43.07,35.89,48.81S225.51,142.72,216.18,252.53Z" transform="translate(-42.27 -7.78)"/><path class="cls-1" d="M263.55,320.71S116.42,255.4,98.48,152.05c-2.15-2.16-11.48-68.9-2.87-84.69.72,0-61.72,49.52-52.39,150,.72.72,114.11,87.56,185.88,112.68,2.16,1.43-17.22,43.06-10.76,58.85,4.3.72,18.66,9.33,18.66,9.33S224.08,361.62,263.55,320.71Z" transform="translate(-42.27 -7.78)"/><path class="cls-1" d="M247.05,282.67c-3.22,1.59,6.45-28,8.61-30.14-1.44-.72,66.74-33.74,63.16-183,1.43-2.87,53.11,60.29,53.11,103.35C374.08,172.14,343.93,234.58,247.05,282.67Z" transform="translate(-42.27 -7.78)"/><path class="cls-1" d="M189.63,390.32l8.61-7.17-26.55-68.9s-34.45-24.4-84-32.3C87.72,282,166,316.4,189.63,390.32Z" transform="translate(-42.27 -7.78)"/><polygon class="cls-1" points="218.41 294.98 240.66 312.21 295.21 272.73 218.41 294.98"/></g></svg>