<svg xmlns="http://www.w3.org/2000/svg" width="20" height="20" viewBox="0 0 20 20">
  <defs>
    <style>
      .cls-1 {
        fill: #cdbe91;
        fill-rule: evenodd;
      }
    </style>
  </defs>
  <path class="cls-1" d="M10.084,6.553a2.069,2.069,0,1,0,2.025,2.068A2.047,2.047,0,0,0,10.084,6.553Zm4.468-2.769a7.028,7.028,0,0,1-4.287,10.811c0.065-2.339,1.811-2.263,2.185-2.289a24.963,24.963,0,0,0,.374-2.822l-0.03-.021a2.825,2.825,0,0,1-5.542-.842A2.909,2.909,0,0,1,8.377,6.313L7.038,3.975,5.317,4.2l-0.8,1.86L2,8.2l2.419,2.14-0.075,1.35,1.122,0.662,1.268,2.1a7,7,0,0,1-3.008-1.845A7.09,7.09,0,1,0,14.552,3.783Zm-1.054,0L13.9,0,11.428,3.032,12,6.553ZM12.824,6.553V8.621L14.146,6.9l-0.4-1.5ZM10.363,5.274l-0.279-4L7.711,3.49,8.959,6.064ZM8.2,16.874L10.084,20s0.051-1.348.1-2.937h-0.1A9.537,9.537,0,0,1,8.2,16.874Z"/>
</svg>
