<svg id="Layer_1" data-name="Layer 1" xmlns="http://www.w3.org/2000/svg" viewBox="0 0 9.55 18"><defs><style>.cls-1{fill:#cdbe91;fill-rule:evenodd;}</style></defs><path class="cls-1" d="M11.25,8.71c-.29.38-3.07.43-3.42.1a.8.8,0,0,1-.18-.19c-.51-.67.63-1,1.78-1S11.79,8,11.25,8.71Z" transform="translate(-4.92 -1)"/><path class="cls-1" d="M8.51,6.07H10.4V8l-1,0L8.51,8Z" transform="translate(-4.92 -1)"/><path class="cls-1" d="M11,5.88c.12,0,.17.54.06.78-.21.46-2.76.35-3.13.1-.2-.12-.17-.85,0-.9h.19Z" transform="translate(-4.92 -1)"/><path class="cls-1" d="M9.57,5.88c.12,0,.17.54.06.78a.65.65,0,0,1-.41.21,3.59,3.59,0,0,0,.08-1Z" transform="translate(-4.92 -1)"/><path class="cls-1" d="M9.46,6.13C10.32,6.13,11,6,11,5.92s-.72-.2-1.58-.2-1.58.08-1.58.2S8.59,6.13,9.46,6.13Z" transform="translate(-4.92 -1)"/><path class="cls-1" d="M9.46,6.07c.63,0,1.13-.06,1.13-.15s-.5-.15-1.13-.15a2.36,2.36,0,0,0-1.14.15C8.32,6,8.84,6.07,9.46,6.07Z" transform="translate(-4.92 -1)"/><path class="cls-1" d="M11.31,7.71c.15,0,.2.62.07.9-.25.52-3.32.39-3.76.11-.23-.14-.2-1,0-1h3.66Z" transform="translate(-4.92 -1)"/><path class="cls-1" d="M11.31,7.71c.15,0,.2.62.07.9a.79.79,0,0,1-.49.24A3.88,3.88,0,0,0,11,7.71Z" transform="translate(-4.92 -1)"/><path class="cls-1" d="M9.46,8a4.21,4.21,0,0,0,1.89-.23c0-.14-.85-.24-1.89-.24s-1.9.1-1.9.24A4.27,4.27,0,0,0,9.46,8Z" transform="translate(-4.92 -1)"/><path class="cls-1" d="M9.46,7.93a3,3,0,0,0,1.36-.16c0-.1-.6-.19-1.36-.19s-1.37.09-1.37.19A3.07,3.07,0,0,0,9.46,7.93Z" transform="translate(-4.92 -1)"/><path class="cls-1" d="M9.71,7.24C9.34,6.4,8.43,5.86,8.08,5A1.92,1.92,0,0,1,9.7,2.45a3,3,0,0,1,2,.65.74.74,0,0,0,1.07-.58c.14-.56-.18-1.21-1-.71a1.22,1.22,0,0,1,1.74-.67,2,2,0,0,1-.1,3.51,2.63,2.63,0,0,1-2-.06c-1.2-.46-1.5.18-1.26,1a12.93,12.93,0,0,1,.42,1.76A4.2,4.2,0,0,1,9.71,7.24Z" transform="translate(-4.92 -1)"/><path class="cls-1" d="M10.2,8a13.47,13.47,0,0,1,3.7,7.39,6.26,6.26,0,0,1-2.54,3.48,12.94,12.94,0,0,1-3.83,0,6.45,6.45,0,0,1-2.61-3.48A12.64,12.64,0,0,1,8.67,8,7.11,7.11,0,0,0,10.2,8Z" transform="translate(-4.92 -1)"/></svg>