<svg id="Layer_1" data-name="Layer 1" xmlns="http://www.w3.org/2000/svg" viewBox="0 0 397.33 295.71"><defs><style>.cls-1{fill:#cdbe91;}</style></defs><path class="cls-1" d="M405.8,77.72c1-3.93-33.36,44.14-48.07,12.75,1,0-15.7-36.3-82.4-29.43-2-1-23.54,18.64-23.54,18.64s-25.51-3.92-33.35,2.94c1-2-2-17.66,2.94-19.62-1,0-53-22.56-57.88,22.56-.64,5.94-19.62-13.73-20.6-19.61-2-2-10.79,17.65-8.83,20.6,1,1-32.37-20.6-32.37-20.6s-31.39-5.89-50,7.84c0-2-22.57,9.81-36.3-18.63,0-1-25.5,69.64,21.58,106.92,1,0,30.41,16.67,30.41,16.67s-40.22,96.14-25.5,148.13c-1,2,8.82,20.6,15.69,23.54h58.86s17.65-10.79,17.65-16.68c0-3.92,27.47,15.7,81.42,0,2.95,0,9.81,13.74,18.64,16.68,2,1,77.49,0,77.49,0s19.62-3.93,24.53-19.62c2-2,9.81-40.22,9.81-40.22l9.81,21.58,14.71-14.71s-2.94-57.88-8.83-66.71c3-1,17.66,10.79,17.66,10.79s-9.81-68.66-30.41-83.38C347.92,157.17,397,190.53,405.8,77.72ZM218.68,150.31c12.18-4.72,27.29,4.93,33.73,21.56s1.8,33.95-10.38,38.67S214.75,205.61,208.3,189,206.5,155,218.68,150.31Zm-90.32,0c12.57,3.58,18.79,20.39,13.9,37.55s-19,28.16-31.6,24.58-18.79-20.39-13.9-37.55S115.8,146.76,128.36,150.34Zm-98.15-54c-2.12-1.07,38.31,7.44,44.69-4.26,0,1.06,28.73,3.19,30.86,9.57,0,0-31.92,43.63-33,50C71.71,148.46,26,122.92,30.21,96.33Zm82.17,237.44H54.26s-15.3-19.37,28.55-53C84.85,280.75,126.66,309.3,112.38,333.77ZM231.3,260.61c-1.06.53,0,30.32,0,30.32s-17,34.58-53.73,30.85c-.53-1.06,0-50,0-50s-5.32-12.77-13.83,0c.53,1.06-2.13,44.15-.53,48.41,0,1.06-37.24-1.6-47.35-25v-33S85.54,250,76.5,239.86c-1.07-.53-3.73-14.36,9.57-11.17,0,0,71.82,51.07,183,0,1.07.53,17-2.13,8.51,12.23C278.12,241.46,257.9,259,231.3,260.61Zm67.39,73.66H237.32s-16.15-20.46,30.14-56C269.62,278.28,313.76,308.43,298.69,334.27ZM351.28,138.9c-16.69-7-42.16,18.44-42.16,20.2-2.63-12.3-43.91-51.82-43.91-51.82,0-6.15,27.22-20.2,28.1-21.08,38.65-11.42,58.85,18.44,58.85,19.32,18.44,18.45,31.61,6.15,32.49,6.15C379.38,157.34,352.16,138,351.28,138.9Z" transform="translate(-8.48 -55.15)"/></svg>