<svg id="Layer_1" data-name="Layer 1" xmlns="http://www.w3.org/2000/svg" viewBox="0 0 402.65 309"><defs><style>.cls-1{fill:#cdbe91;}</style></defs><polygon class="cls-1" points="190.07 309 159.12 238.95 131.42 216.68 96.66 134.68 114.04 118.93 81.46 60.28 0 34.21 109.16 237.86 190.07 309"/><polygon class="cls-1" points="195.5 256.87 195.5 169.43 128.16 51.59 47.25 0 71.68 42.9 97.21 51.59 133.59 118.39 121.64 127.62 195.5 256.87"/><path class="cls-1" d="M58,55.46l78.74,50H277.35l78.74-50H260.52l-9.78,13H163.31L151.36,54.91S57.41,56,58,55.46Z" transform="translate(-5.82 -48.5)"/><polygon class="cls-1" points="212.59 309 243.54 238.95 271.24 216.68 305.99 134.68 288.61 118.93 321.2 60.28 402.65 34.21 293.5 237.86 212.59 309"/><polygon class="cls-1" points="207.15 256.87 207.15 169.43 274.49 51.59 355.41 0 330.97 42.9 305.45 51.59 269.06 118.39 281.01 127.62 207.15 256.87"/><path class="cls-1" d="M155.12,115l51.79,89.4L259.18,115S155,115.08,155.12,115Z" transform="translate(-5.82 -48.5)"/></svg>