<?xml version="1.0" encoding="utf-8"?>
<!-- Generator: Adobe Illustrator 23.0.4, SVG Export Plug-In . SVG Version: 6.00 Build 0)  -->
<svg version="1.1" id="Layer_1" xmlns="http://www.w3.org/2000/svg" xmlns:xlink="http://www.w3.org/1999/xlink" x="0px" y="0px"
	 viewBox="0 0 20 20" enable-background="new 0 0 20 20" xml:space="preserve">
<g>
	<polygon fill="#CDBE91" points="10.51,10.95 9.57,11.6 10.01,12.38 11.34,10.08 	"/>
	<polygon fill="#CDBE91" points="6.95,5.43 7.22,5.23 10.38,3.34 10.57,3 8,3 6.86,3.66 3.73,3.66 3.29,4.39 5.1,5.43 	"/>
	<polygon fill="#CDBE91" points="14.42,11.37 13.75,11.48 12.73,12.31 12.36,12.88 11.51,13.43 10.66,14.91 10.66,17 11.45,17 
		11.5,17 14.78,11.31 	"/>
	<polygon fill="#CDBE91" points="14.09,4.53 15.2,4.53 16.34,3.98 15.68,3 10.71,3 10.43,3.45 8.66,4.58 8.63,4.77 7.83,5.23 
		7.8,5.43 13.05,5.43 	"/>
	<polygon fill="#CDBE91" points="10.09,8.92 11.17,7.73 11.73,7.39 7.13,7.39 8.85,10.36 	"/>
	<polygon fill="#CDBE91" points="17.34,5.37 17.31,5.39 16.38,6.41 15.51,6.5 12.17,12.27 13.68,11.08 14.9,10.87 15.05,10.82 
		17.78,6.09 	"/>
	<g>
		<polygon fill="#CDBE91" points="7.69,12 5.11,7.52 4.99,7.52 4.22,7.94 4.96,7.25 4.47,6.4 2.69,5.37 2.25,6.09 6.52,13.52 		"/>
		<polygon fill="#CDBE91" points="8.13,12.76 6.77,13.94 8.53,17 8.58,17 9.37,17 9.37,14.91 		"/>
	</g>
	<polygon fill="#CDBE91" points="14.82,5.48 14.62,5.8 11.3,7.91 8.42,11.34 5.81,14.55 10.04,11.03 11.25,9.98 11.55,9.72 
		11.55,9.72 14.43,7.22 15.42,5.68 18.07,3.48 	"/>
</g>
</svg>
