<?xml version="1.0" encoding="utf-8"?>
<!-- Generator: Adobe Illustrator 24.2.1, SVG Export Plug-In . SVG Version: 6.00 Build 0)  -->
<svg version="1.1" id="Layer_1" xmlns="http://www.w3.org/2000/svg" xmlns:xlink="http://www.w3.org/1999/xlink" x="0px" y="0px"
	 viewBox="0 0 414.3 406" style="enable-background:new 0 0 414.3 406;" xml:space="preserve">
<style type="text/css">
	.st0{fill:#CDBE91;}
</style>
<g>
	<g>
		<polygon class="st0" points="295.5,63.4 235.8,63.4 240.7,89 276.6,89 287.8,124.7 310.1,110.4 		"/>
		<polygon class="st0" points="314,122.7 291.6,137 303.3,174.4 294.1,190.4 285.9,193.5 271.1,219 297,236.6 331.1,177.4 		"/>
		<polygon class="st0" points="264.3,230.3 245,263.6 245,326.5 290.4,248 		"/>
		<path class="st0" d="M227.1,136.6v-29.7c0-11.9-0.9-23.8-2.8-35.6l-5.6-34.8c4.7-3.5,7.7-9,7.7-15.3c0-10.6-8.6-19.3-19.3-19.3
			c-10.6,0-19.3,8.6-19.3,19.3c0,6.3,3.1,11.8,7.7,15.3L190,71.3c-1.9,11.8-2.8,23.6-2.8,35.6v29.7c-20.4,7.9-35.1,27.4-35.7,50.4
			c11.2-19,31.9-31.7,55.6-31.7c23.7,0,44.4,12.7,55.6,31.7C262.2,164,247.5,144.5,227.1,136.6z"/>
		<path class="st0" d="M212,217.3v37.8c0,14.4-0.9,28.8-2.8,43.1l-2,15.3l-2-15.3c-1.9-14.3-2.8-28.7-2.8-43.1v-37.8
			c-7.4-1.1-14.1-4.4-19.1-9.5v113.6c0,19.2,4.2,38.1,12.3,55.4l11.7,25.1l11.7-25.1c8.1-17.4,12.3-36.3,12.3-55.4V207.8
			C226.1,212.9,219.4,216.2,212,217.3z"/>
		<polygon class="st0" points="178.5,63.4 118.8,63.4 104.2,110.4 131.2,127.8 143.4,89 173.6,89 		"/>
		<polygon class="st0" points="111,174.4 114.7,162.6 121.7,158.7 127.4,140.1 100.3,122.7 83.2,177.4 117.3,236.6 138.3,221.8 		
			"/>
		<polygon class="st0" points="144.9,233.2 150.1,242.1 160.8,246.9 169.3,261.6 169.3,326.5 123.9,248 		"/>
		<path class="st0" d="M207.1,203.9c-10.9,0-19.8-8.9-19.8-19.8s8.9-19.8,19.8-19.8s19.8,8.9,19.8,19.8S218.1,203.9,207.1,203.9z
			 M207.1,176.9c-3.9,0-7.2,3.2-7.2,7.2s3.2,7.2,7.2,7.2s7.2-3.2,7.2-7.2C214.3,180.1,211.1,176.9,207.1,176.9z"/>
	</g>
</g>
</svg>
