<svg id="galaxy_tracker" data-name="galaxy tracker" xmlns="http://www.w3.org/2000/svg" viewBox="0 0 477.01 477"><defs><style>.cls-1{fill:#cdbe91;}.cls-2{fill:none;}</style></defs><path id="Circular_A_22" class="cls-1" d="M102.26,139,57.83,106.57a240.27,240.27,0,0,1,38.09-41l35.65,41.89A185,185,0,0,0,102.26,139ZM415.68,75.32A238.55,238.55,0,0,0,146.19,32.64l24.06,49.51A183.42,183.42,0,0,1,377.55,115Zm4.65,241.15a183.5,183.5,0,0,1-169.9,114.2c-4.17,0-8.29-.2-12.39-.46l-3.72,54.9c5.34.35,10.69.6,16.11.6,99.85,0,185.33-61.41,220.86-148.48Zm12.07-92.42a179.35,179.35,0,0,1-.19,47.71l54.53,7.38a233,233,0,0,0,.23-62ZM93.25,341.87A183.44,183.44,0,0,1,79.91,179.5L28.77,159.18a238.59,238.59,0,0,0,17.34,211.1Z" transform="translate(-11.93 -8.71)"/><path class="cls-2" d="M309.22,392.24l-.33-.81-.38-.92-2.94-7.33s1.51-.65,4.36-1.83c1.43-.56,3.09-1.47,5.12-2.4s4.29-2.17,6.81-3.52c1.29-.65,2.6-1.43,3.94-2.26s2.81-1.65,4.26-2.57c2.88-1.94,6-4,9.21-6.43a146.33,146.33,0,0,0,19.93-18,149.26,149.26,0,0,0,18.95-25.47,145.81,145.81,0,0,0,14.07-32.47,148.63,148.63,0,0,0,6.12-37.38c.11-1.61.1-3.24.09-4.86l-.05-4.87c-.21-3.25-.24-6.52-.65-9.75a152.36,152.36,0,0,0-3.2-19.4,148.38,148.38,0,0,0-63.23-90A145.36,145.36,0,0,0,303,107.67a149,149,0,0,0-46.46-9.46c-2.87-.19-5.43-.13-7.68-.13s-4.12.07-5.66.18l-3.51.19c-.79,0-1.19.08-1.19.08l-.43-5.18a155.88,155.88,0,1,0,71.15,298.89Z" transform="translate(-11.93 -8.71)"/><path class="cls-1" d="M311.22,397.26l1.74,4.31,4.92-2.06c1.64-.64,3.54-1.65,5.85-2.71s4.85-2.46,7.72-4c1.44-.76,2.92-1.62,4.46-2.55s3.17-1.89,4.82-2.93c3.28-2.19,6.83-4.51,10.43-7.28a167.23,167.23,0,0,0,22.6-20.37,170,170,0,0,0,21.5-28.89,168.64,168.64,0,0,0,22.9-79.21c.11-1.83.11-3.66.1-5.51l0-5.52c-.24-3.69-.29-7.41-.75-11.08a166.71,166.71,0,0,0-44.55-98.24,172.43,172.43,0,0,0-30.78-25.83A165,165,0,0,0,310,89.12a168,168,0,0,0-52.64-10.73c-3.26-.21-6.16-.14-8.69-.14s-4.69.08-6.44.19-3.07.17-4,.24-1.36.08-1.36.08l.55,6.73,0,.59.16,1.88a161.29,161.29,0,1,0,73.59,309.3ZM137.66,138.67A155.3,155.3,0,0,1,238.07,93.35l.43,5.18s.4,0,1.19-.08l3.51-.19c1.54-.11,3.44-.2,5.66-.18s4.81-.06,7.68.13A149,149,0,0,1,303,107.67,145.36,145.36,0,0,1,331.3,122a148.38,148.38,0,0,1,63.23,90,152.36,152.36,0,0,1,3.2,19.4c.41,3.23.44,6.5.65,9.75l.05,4.87c0,1.62,0,3.25-.09,4.86a148.63,148.63,0,0,1-6.12,37.38,145.81,145.81,0,0,1-14.07,32.47A149.26,149.26,0,0,1,359.2,346.2a146.33,146.33,0,0,1-19.93,18c-3.18,2.46-6.33,4.49-9.21,6.43-1.45.92-2.89,1.75-4.26,2.57s-2.65,1.61-3.94,2.26c-2.52,1.35-4.77,2.6-6.81,3.52s-3.69,1.84-5.12,2.4c-2.85,1.18-4.36,1.83-4.36,1.83l2.94,7.33.38.92.33.81A155.9,155.9,0,0,1,137.66,138.67Z" transform="translate(-11.93 -8.71)"/><path id="Hi-Tech_Circular_part" class="cls-1" d="M382.24,243.19h-3.35l-1.7,1.7H321.43a75.08,75.08,0,0,0-20.79-50.28L340,155.21h2.41l2.38-2.38A135.57,135.57,0,0,1,382.24,243.19Zm-84.31-45.88a71.16,71.16,0,0,1,19.71,47.58h2.59a74,74,0,0,0-20.44-49.43Zm19.71,51a71.21,71.21,0,0,1-19.71,47.59l1.86,1.84a74,74,0,0,0,20.44-49.43Zm-17,50.28L340,338h2.41l2.38,2.37A135.57,135.57,0,0,0,382.24,250h-3.35l-1.7-1.7H321.43A75.08,75.08,0,0,1,300.64,298.57Zm-128.8-50.28a74,74,0,0,0,20.66,49.65l2.06-2.06a71.17,71.17,0,0,1-19.72-47.59Zm19.81,50.5a75.1,75.1,0,0,1-21-50.5H115.31l-1.7,1.7h-3.36a135.58,135.58,0,0,0,37.43,90.36l2.37-2.37h2.4Zm-81.4-55.6h3.36l1.7,1.7h55.33a75.1,75.1,0,0,1,21-50.5l-39.2-39.18h-2.4l-2.37-2.38A135.58,135.58,0,0,0,110.25,243.19Zm64.59,1.7a71.12,71.12,0,0,1,19.72-47.58l-2.06-2.07a74,74,0,0,0-20.66,49.65ZM152.49,148l2.37,2.38v2.4l39.4,39.4a75.18,75.18,0,0,1,50.29-20.8V115.66l-1.7-1.71v-3.36A135.63,135.63,0,0,0,152.49,148ZM197,194.91a71,71,0,0,1,47.58-19.71v-2.6a74,74,0,0,0-49.44,20.45Zm51-19.71a71,71,0,0,1,47.57,19.71l1.87-1.86A74.06,74.06,0,0,0,248,172.6Zm50.28,17,39.4-39.4v-2.4L340,148a135.65,135.65,0,0,0-90.36-37.43V114l-1.7,1.71V171.4A75.17,75.17,0,0,1,298.23,192.2ZM248,321a73.93,73.93,0,0,0,49.64-20.66l-2.07-2.07A71.08,71.08,0,0,1,248,318Zm50.49-19.8a75.18,75.18,0,0,1-50.49,21v55.33l1.7,1.71v3.35A135.6,135.6,0,0,0,340,345.16l-2.38-2.37v-2.41Zm-55.59,81.39v-3.35l1.7-1.71V322.2a75.19,75.19,0,0,1-50.5-21l-39.19,39.18v2.41l-2.37,2.37A135.58,135.58,0,0,0,242.85,382.59Zm1.7-64.6A71.1,71.1,0,0,1,197,298.27l-2.07,2.07A73.91,73.91,0,0,0,244.55,321Z" transform="translate(-11.93 -8.71)"/></svg>