<svg width="20" height="20" viewBox="0 0 20 20" fill="none" xmlns="http://www.w3.org/2000/svg">
<path fill-rule="evenodd" clip-rule="evenodd" d="M10 3C6.1 3 1 1 1 1V6C1 16 10 19 10 19C10 19 19 15.9 19 6V1C19 1 13.9 3 10 3ZM3 8C3 7 4.3 7 5 7C5.62911 7.04985 6.23501 7.2598 6.7601 7.60986C7.28519 7.95992 7.71202 8.43846 8 9C8.00559 9.26418 7.95768 9.52676 7.85915 9.77194C7.76062 10.0171 7.61351 10.2398 7.42667 10.4267C7.23982 10.6135 7.0171 10.7606 6.77193 10.8592C6.52675 10.9577 6.26418 11.0056 6 11C5.22656 10.9338 4.50139 10.5964 3.95248 10.0475C3.40358 9.49861 3.06624 8.77344 3 8ZM10 16C9.10416 15.9777 8.23754 15.6768 7.52065 15.1391C6.80375 14.6015 6.27224 13.8538 6 13C7.20898 13.7122 8.59812 14.0594 10 14C11.397 14.0152 12.7745 13.6709 14 13C13.7278 13.8538 13.1962 14.6015 12.4794 15.1391C11.7625 15.6768 10.8958 15.9777 10 16ZM14 11C13.7358 11.0056 13.4733 10.9577 13.2281 10.8592C12.9829 10.7606 12.7602 10.6135 12.5733 10.4267C12.3865 10.2398 12.2394 10.0171 12.1409 9.77194C12.0423 9.52676 11.9944 9.26418 12 9C12.288 8.43846 12.7148 7.95992 13.2399 7.60986C13.765 7.2598 14.3709 7.04985 15 7C15.7 7 17 7 17 8C16.9338 8.77344 16.5964 9.49861 16.0475 10.0475C15.4986 10.5964 14.7734 10.9338 14 11Z" fill="#CDBE91"/>
</svg>
