<svg xmlns="http://www.w3.org/2000/svg" width="128" height="128" viewBox="0 0 128 128">
  <metadata><?xpacket begin="﻿" id="W5M0MpCehiHzreSzNTczkc9d"?>
<x:xmpmeta xmlns:x="adobe:ns:meta/" x:xmptk="Adobe XMP Core 5.6-c138 79.159824, 2016/09/14-01:09:01        ">
   <rdf:RDF xmlns:rdf="http://www.w3.org/1999/02/22-rdf-syntax-ns#">
      <rdf:Description rdf:about=""/>
   </rdf:RDF>
</x:xmpmeta>
                                                                                                    
                                                                                                    
                                                                                                    
                                                                                                    
                                                                                                    
                                                                                                    
                                                                                                    
                                                                                                    
                                                                                                    
                                                                                                    
                                                                                                    
                                                                                                    
                                                                                                    
                                                                                                    
                                                                                                    
                                                                                                    
                                                                                                    
                                                                                                    
                                                                                                    
                                                                                                    
                           
<?xpacket end="w"?></metadata>
<defs>
    <style>
      .cls-1 {
        fill: #cdbe91;
        fill-rule: evenodd;
      }
    </style>
  </defs>
  <path class="cls-1" d="M104,28C97.829,41.049,80.858,39.62,80.858,39.62,85.87,37.624,84,28,84,28c-1.178,2.294-9.385,6.229-9.385,6.229l2.473-7.911L74.226,23.38c-0.728,5.456-9.51,6.043-9.51,6.043C64.715,23.138,68,20,68,20l-6.071-4.028L56,20s3.292,3.138,3.292,9.422c0,0-8.782-.587-9.51-6.042L46.92,26.318l2.472,7.911S41.178,30.294,40,28c0,0-1.862,9.624,3.15,11.62,0,0-16.978,1.429-23.15-11.62,0,0-3.19,28.419,16.589,34.35,0,0-8.625,3.915-12.589,5.65,0,0,13.431,9.057,12,16l9.319,9.206,6.5-4.578s3.71,13.259,10.168,19.334c6.458-6.075,10.2-19.334,10.2-19.334l6.5,4.578L88,84c-1.431-6.943,12-16,12-16-3.964-1.736-12.581-5.65-12.581-5.65C107.2,56.419,104,28,104,28ZM62,33.019l7.135,8.874a35.572,35.572,0,0,0-2.721,3.015l0.031,0-0.031.012A42.246,42.246,0,0,0,62,52.366a42.129,42.129,0,0,0-4.4-7.427l-0.031-.012,0.031,0a35.557,35.557,0,0,0-2.74-3.038Zm18,24.744L68,64,62,97.068,56,64,44,57.763s-0.867-6.828-1.535-9.648l19.3,8.765L62,56.968l0.24-.089,19.3-8.765C80.874,50.935,80.006,57.763,80.006,57.763Z"/>
</svg>
