<svg id="Layer_1" data-name="Layer 1" xmlns="http://www.w3.org/2000/svg" viewBox="0 0 278.56 392.7"><defs><style>.cls-1{fill:#cdbe91;}</style></defs><circle class="cls-1" cx="139.36" cy="137.96" r="31.47"/><path class="cls-1" d="M263.19,176.29c-18.3,35.87-56.09,124.94-56.09,124.94v65.16l-.11-.21V301.23s-37.8-89.07-56.1-124.94c-8.4-16.48-20.89-31-33.16-38C155.3,114.36,180.82,89.59,207,53.61c26.16,35.87,51.68,60.75,89.26,84.66C284.08,145.27,271.59,159.92,263.19,176.29Zm-56,189.89c1.4-3,14.32-30.81,30.15-64.31ZM207.1,6.65C175.22,61.8,125.91,109.83,67.87,137.08c21.54,8.94,44.15,29.3,54.49,50.2,11.73,23.91,35.21,73.45,54.37,114.38-.64,11.85-9.37,16-16.26,16,12.82,8.61,24.12,33.82,35.54,54.82,4.84,9.05,10.44,24.77,11.19,26.82.76-2.05,6.25-17.77,11.2-26.82,11.42-21,22.72-46.21,35.53-54.82-7,0-15.82-4.2-16.36-16.16,19.16-40.93,42.53-90.36,54.37-114.27,10.34-20.9,32.95-41.26,54.49-50.2C288.28,109.83,239,61.8,207.1,6.65Z" transform="translate(-67.87 -6.65)"/></svg>