<svg id="Layer_1" data-name="Layer 1" xmlns="http://www.w3.org/2000/svg" viewBox="0 0 370.74 379.13"><defs><style>.cls-1{fill:#cdbe91;}</style></defs><path class="cls-1" d="M290.18,138.53a108.8,108.8,0,0,0-142.81,143.1C182.07,195.76,249.61,155.62,290.18,138.53Z" transform="translate(-21.78 -13.43)"/><path class="cls-1" d="M327.49,165.08c-98.4,18.35-155.94,92.21-177.35,122.43A108.77,108.77,0,1,0,327.49,165.08Z" transform="translate(-21.78 -13.43)"/><path class="cls-1" d="M227.11,352.49c-37.57,21.61-70.81,27.1-86.62,10.92-25.28-25.86,3.55-97.3,64.4-159.56s130.67-91.76,156-65.9c13.22,13.53,11.61,39.54-1.61,70.17A111.77,111.77,0,0,1,363.44,228c29.4-49.07,38.21-93.24,18.53-113.38-29.52-30.21-111.91,5.11-184,78.89S91.33,351.56,120.85,381.77c21.35,21.84,70.32,9.41,123.07-27A113.15,113.15,0,0,1,227.11,352.49Z" transform="translate(-21.78 -13.43)"/><path class="cls-1" d="M163.39,187.59C162,185.51,48.44,42.17,48.44,42.17L198,161.28Z" transform="translate(-21.78 -13.43)"/><circle class="cls-1" cx="26.83" cy="26.83" r="26.83"/><path class="cls-1" d="M208.08,88.32c-6.2-9-38.42.69-72,21.6S80.4,155.07,86.59,164.05s38.42-.68,72-21.6S214.27,97.3,208.08,88.32Zm-56.53,43.42c-20,12.46-39,18.54-42.42,13.57s10-19.11,30-31.58,39-18.54,42.42-13.57S171.55,119.27,151.55,131.74Z" transform="translate(-21.78 -13.43)"/><path class="cls-1" d="M113.4,19.74C105.94,17.51,90,37.33,77.75,64s-16.1,50.12-8.65,52.35,23.42-17.6,35.66-44.28S120.86,22,113.4,19.74ZM96.1,69.26c-7.29,15.9-16.55,27.8-20.68,26.56s-1.56-15.12,5.73-31S97.7,37,101.83,38.22,103.39,53.35,96.1,69.26Z" transform="translate(-21.78 -13.43)"/></svg>