<svg id="Layer_1" data-name="Layer 1" xmlns="http://www.w3.org/2000/svg" viewBox="0 0 218.71 388.49"><defs><style>.cls-1{fill:#cdbe91;}</style></defs><path class="cls-1" d="M318.39,301.42l.12.1S318.48,301.48,318.39,301.42Z" transform="translate(-99.8 -8.51)"/><path class="cls-1" d="M266.93,375.56c-16.46-13.92-2.53-55.05-3.17-55.69,6.33-17.4-10.44-63-10.44-62.33,11.33,11.63,62.33,41.91,65.07,43.88C299.15,284.63,286.23,255,285.91,255c-6.32-20.89-26.26-35.76-26.89-35.44C253,214.5,234.65,205,234,205c25-11.39,30.38-35.12,30.38-35.44,11.39-38.29-44.62-75-44.62-75-13.61-12.66-23.73-40.82-23.73-41.14-8.86-21.2,5.06-44.93,4.11-44.93C190.35,13.89,172,35.72,172,35.72s-46.83,69-47.15,69C68.53,192,150.8,211,150.48,211c7,1.9,23.73,2.22,23.73,2.22-6,5.06-12.65,17.72-12.34,16.45-1.58,2.85-13.92,13.29-14.24,12.66-13.92,13-49.36,47.15-47.78,47.78,2.85.32,69-30.69,67.72-30.69-32.59,63,24.05,94.92,24.36,94.92,36.71,28.48,55.38,34.18,55.06,34.81,35.31,19.78,55.09-4,56.26-5C280.51,392,266.93,375.88,266.93,375.56ZM140.4,185.23c-11.56-4-6.16-11.34-6.05-11.56,9.51-5.94,17.93,10.8,17.93,10.8C152.39,189.33,140.62,185.44,140.4,185.23Zm68.48-.87c.11,0-16,3.57-14.47-2.7,0,0,16.53-25.38,27.76-14C222.39,167.84,229.84,180.26,208.88,184.36Z" transform="translate(-99.8 -8.51)"/><path class="cls-1" d="M303.25,384.13l.07,0S303.3,384.09,303.25,384.13Z" transform="translate(-99.8 -8.51)"/></svg>