<svg id="Layer_1" data-name="Layer 1" xmlns="http://www.w3.org/2000/svg" viewBox="0 0 237.58 422.02"><defs><style>.cls-1{fill:#676553;}</style></defs><path class="cls-1" d="M348.87,336.22l.12.12S349,336.3,348.87,336.22Z" transform="translate(-111.42 -18.04)"/><path class="cls-1" d="M293,416.77c-17.88-15.12-2.75-59.81-3.44-60.5,6.87-18.9-11.34-68.4-11.34-67.71,12.3,12.63,67.7,45.53,70.68,47.66C328,318,313.93,285.81,313.59,285.81c-6.87-22.69-28.53-38.84-29.22-38.5-6.53-5.5-26.46-15.81-27.15-15.81,27.15-12.38,33-38.16,33-38.5,12.37-41.59-48.47-81.46-48.47-81.46C227,97.79,216,67.19,216,66.85c-9.62-23,5.5-48.81,4.47-48.81-10.66,5.84-30.59,29.56-30.59,29.56S139,122.54,138.63,122.54C77.45,217.41,166.82,238,166.47,238c7.56,2.06,25.78,2.41,25.78,2.41-6.53,5.5-13.75,19.24-13.4,17.87-1.72,3.09-15.13,14.44-15.47,13.75-15.13,14.09-53.62,51.22-51.91,51.9,3.1.35,74.94-33.34,73.56-33.34-35.4,68.4,26.13,103.12,26.47,103.12,39.87,30.94,60.15,37.12,59.81,37.81,38.35,21.49,59.84-4.38,61.12-5.48C307.72,434.61,293,417.11,293,416.77ZM155.52,210c-12.56-4.34-6.69-12.32-6.57-12.56,10.32-6.45,19.48,11.74,19.48,11.74C168.54,214.47,155.75,210.24,155.52,210Zm74.39-.94c.12,0-17.36,3.87-15.72-2.93,0,0,17.95-27.58,30.16-15.26C244.58,191.12,252.68,204.61,229.91,209.07Z" transform="translate(-111.42 -18.04)"/><path class="cls-1" d="M332.43,426.07l.07,0S332.48,426,332.43,426.07Z" transform="translate(-111.42 -18.04)"/></svg>