<svg xmlns="http://www.w3.org/2000/svg" width="20" height="20" viewBox="0 0 20 20">
  <defs>
    <style>
      .cls-1 {
        fill: #cdbe91;
        fill-rule: evenodd;
      }
    </style>
  </defs>
  <path class="cls-1" d="M10,20L8.9,17.777c-0.8-1.611-1.639-3.845-2.011-4.865A21.238,21.238,0,0,1,2.4,10.781L1,9.867l1.4-.921A15.461,15.461,0,0,1,6.851,7.039,42.467,42.467,0,0,1,8.9,2.208L10,0l1.1,2.208A42.424,42.424,0,0,1,13.15,7.039,15.462,15.462,0,0,1,17.6,8.946L19,9.867l-1.4.914a21.249,21.249,0,0,1-4.487,2.131c-0.372,1.02-1.214,3.254-2.011,4.865ZM5.493,9.884a16.129,16.129,0,0,0,2.7,1.061l0.6,0.169,0.2,0.557C9,11.691,9.436,12.922,10,14.327c0.564-1.406,1-2.636,1.005-2.655l0.2-.557,0.6-.169a16.126,16.126,0,0,0,2.7-1.061,14.063,14.063,0,0,0-2.592-.815l-0.787-.146-0.161-.73A17.648,17.648,0,0,0,10,5.527a17.656,17.656,0,0,0-.97,2.665l-0.161.73-0.787.146A14.321,14.321,0,0,0,5.493,9.884Z"/>
</svg>
