<svg height="48" viewBox="0 0 48 48" width="48" xmlns="http://www.w3.org/2000/svg"><path d="m9.068-442v960.008m9.51-488.708s-4.609 5.45-4.843 5.977-2.392 9.727-2.392 9.727 3.967-5.332 5.076-7.383 2.159-8.321 2.159-8.321zm-15.578-11.014s4.866 1.457 7.8 2.486a57.557 57.557 0 0 1 6.2 2.495c.467.293 5.718 9.2 5.718 9.2l-3.848-15.881-3.209 4.219-2.861-4.219s.891-2.355 2.459-5.689 3.961-7.847 3.961-7.847l-4.551 5.919-5.426-4.747s4.244 6.476 4.259 6.5l-4.959 7.329zm21-18.286-7.289 14.828 7.118-9.083 7 8.731zm-.229 8.91-3.559 6.09 1.108.879a31.126 31.126 0 0 1 2.451 12.364 31.126 31.126 0 0 1 2.45-12.364l1.109-.879zm-3.734 27.482s.817.231 3.734 11.423c0 0 2.159-13.181 2.976-15.407a69.678 69.678 0 0 1 5.018-9.2 18.173 18.173 0 0 1 4.641-2.032c4.868-1.367 9.594-2.89 9.594-2.89s-6.068-.41-6.184-.41a16.2 16.2 0 0 1 -2.816-3.395c-3.06-4.6-7.511-12.134-7.511-12.134l6.185 14.884-3.5 4.043-2.274-.937-.933-3.75a50.522 50.522 0 0 0 -1.985 6.552c-.583 2.882-4.258 17.18-4.258 17.18zm14.644-28.892 1.692 2.051s1.167-1.817 4.784-6.387c-.057.062-6.476 4.336-6.476 4.336zm-1.867 19.575-3.734 8.79 8.752 9.376-5.66-11.541z" fill="#B894EF" fill-rule="evenodd"/></svg>