<svg height="48" viewBox="0 0 48 48" width="48" xmlns="http://www.w3.org/2000/svg"><path d="m37.519-430.008v939.008m-22.095-491.911v3.211l-.628.4s-4.567-2.235-4.624-2.293a10.259 10.259 0 0 1 1.884-6.133c.114.172 3.368 4.815 3.368 4.815zm-1.424 4.241-6-2.751.057 3.955 2.112 1.146zm3.165-6.777a4.908 4.908 0 0 1 2.256-1.015v-10.438c-1.884 1.548-6.851 7.451-6.851 8.139.152.2 2.81 4.045 3.417 4.923a3.869 3.869 0 0 1 1.174-1.609zm-6.7 9.872s-1.65.872-1.819.985a22.815 22.815 0 0 0 2.48 7.2 11.879 11.879 0 0 0 4.248 4.227v-4.467s-3.035-1.679-3.374-6.858zm23.115-7.336v3.211l.62.4s4.567-2.235 4.625-2.293a10.259 10.259 0 0 0 -1.884-6.133c-.114.172-3.368 4.815-3.368 4.815zm1.42 4.241 5.995-2.751-.057 3.955-2.113 1.146zm-2.74-.207v-2.63a3.649 3.649 0 0 0 -1.395-2.793 4.934 4.934 0 0 0 -2.373-1.035v-12.994l-1.77-1.72v16.421h.885c1.59 0 2.883.951 2.883 2.121v3.618l3.005 1.874-3.176 2.08v12.926l-3.426 2.694v1.585l-2.393 2.167-2.4-2.167v-1.585l-3.425-2.694v-12.926l-3.175-2.08 3.005-1.874v-3.618c0-1.169 1.293-2.121 2.883-2.121h.885v-16.421l-1.77 1.719v12.994a4.934 4.934 0 0 0 -2.371 1.036 3.649 3.649 0 0 0 -1.395 2.794v2.63l-4.531 2.826 4.7 3.079v12.827l3.426 2.694v1.51l4.168 3.789 4.161-3.789v-1.51l3.425-2.694v-12.829l4.7-3.079zm-.424-6.57a4.908 4.908 0 0 0 -2.256-1.015v-10.438c1.884 1.548 6.851 7.451 6.851 8.139-.152.2-2.809 4.045-3.417 4.923a3.869 3.869 0 0 0 -1.179-1.609zm6.7 9.872s1.65.872 1.819.985a22.817 22.817 0 0 1 -2.48 7.2 11.879 11.879 0 0 1 -4.248 4.227v-4.467s3.028-1.679 3.364-6.857zm-9.41 9.65-4.631 3.3-4.631-3.3.02 2.365 3.187 2.231v3.847l1.421 1.312v.006-.005l1.421-1.312v-3.847l3.187-2.231zm-4.742-3.116c-1.256 0-3.026-1.376-3.026-3.84s1.77-2.579 2.055-2.636c-.628.458-.628 2.407.457 2.121 2.2-.581-.285-2.809-.514-4.471a2.423 2.423 0 0 1 .742-1.949c0 3.324 1.994 1.771 2.74 4.3.659 2.232-1.028 2.98-1.713 3.9a2 2 0 0 0 2.227-1.891c.461 1.715-.509 4.466-2.964 4.466z" fill="#84F9C5" fill-rule="evenodd"/></svg>