<svg height="48" viewBox="0 0 48 48" width="48" xmlns="http://www.w3.org/2000/svg"><path d="m28 22.928a3.743 3.743 0 1 1 -3.742-3.747 3.744 3.744 0 0 1 3.742 3.747zm6.209-11.065a23.271 23.271 0 0 0 -1.797-1.863 14.1 14.1 0 0 1 -2.321-2.788 8.754 8.754 0 0 1 -2.091-1.623c-.258-.29-.508-.513-.754-.813a19.947 19.947 0 0 1 -1.276-1.684c-.336-.511-.679-.992-.97-1.534-.231-.432-.77-1.545-.77-1.545s-.538 1.112-.771 1.545c-.29.539-.633 1.023-.97 1.534a19.947 19.947 0 0 1 -1.276 1.684c-.246.3-.5.523-.754.813a8.754 8.754 0 0 1 -2.089 1.627 14.1 14.1 0 0 1 -2.321 2.784 23.271 23.271 0 0 0 -1.8 1.859c-.321.379-.812.871-1.218 1.278 0 0 .742-.438 1.683-1.046 1.3-.838 2.968-1.968 3.54-2.44.325-.268.951-.7 1.509-1.162.431-.357.828-.721 1.277-1.1a9.59 9.59 0 0 0 1.683-1.626c.252-.363.5-.555.7-.871a10.539 10.539 0 0 0 .812-1.684 10.533 10.533 0 0 0 .812 1.684c.2.317.444.508.7.871a9.59 9.59 0 0 0 1.675 1.627c.448.383.845.747 1.276 1.1.557.461 1.183.893 1.509 1.162.572.471 2.242 1.6 3.539 2.44.941.608 1.683 1.046 1.683 1.046-.406-.404-.898-.897-1.218-1.275zm-5.509-.814c-.406-.407-2.2-2.265-2.785-2.788a9.487 9.487 0 0 1 -1.685-2.555 9.488 9.488 0 0 1 -1.683 2.556c-.58.523-2.379 2.381-2.785 2.788s-2.031 1.742-2.321 1.975a26.846 26.846 0 0 0 3.656-1.8 9.646 9.646 0 0 1 1.334-.929 4.492 4.492 0 0 0 .7-.581 4.987 4.987 0 0 0 1.1-1.162 4.984 4.984 0 0 0 1.1 1.162 4.5 4.5 0 0 0 .7.581 9.646 9.646 0 0 1 1.335.929 26.842 26.842 0 0 0 3.656 1.8c-.293-.233-1.922-1.569-2.322-1.976zm14.8 11.094c-1.626-1.139-3.714-2.614-4.12-2.962-.38-.323-7.258-6.157-7.374-5.981s6.093 6.389 6.847 7.377a14.16 14.16 0 0 0 1.392 1.623c-1.218 0-2.959-.7-5.976.523-1.549.626-3.133 2.5-3.54 2.5a8.6 8.6 0 0 0 -1.915.174c-.148.148.116 1.917 0 2.033a6.14 6.14 0 0 1 -4.584 2.033 9.322 9.322 0 0 1 -4.41-.871 7.6 7.6 0 0 1 -1.084-.543 14.627 14.627 0 0 1 -4.2-5.208 9.554 9.554 0 0 0 1.757 5.1 11.1 11.1 0 0 0 2.769 2.8 8.546 8.546 0 0 0 5.164 1.685c1.567 0 3.946-.755 6.441-3.369a16.284 16.284 0 0 0 1.687-.057c.116-.116.116-2.033.174-2.265 3.075-4.124 8-4.248 8.413-3.427.116.232-1.973 2.207-2.379 2.614-.18.18-3.017 4.182-3.017 4.182.29-.174 1.915-1.8 2.147-1.975s1.451-1.394 1.857-1.684 2.089-1.51 2.553-1.859a27.089 27.089 0 0 1 2.898-1.571 14.845 14.845 0 0 1 -1.506-.871zm-14.163 11.157a12.026 12.026 0 0 0 -1.393.987c-.58.465-.928.7-1.393 1.1a4.565 4.565 0 0 1 -.928.929 4.635 4.635 0 0 0 -1.393 1.278 4.635 4.635 0 0 0 -1.393-1.278 4.565 4.565 0 0 1 -.928-.929c-.464-.407-.812-.639-1.393-1.1a12.017 12.017 0 0 0 -1.393-.987 26.716 26.716 0 0 0 -2.379-1.278c0 .027.666.591 1.451 1.336.472.448.954.976 1.451 1.452.441.423.754.682 1.1 1.046.454.474.766.868.986 1.1a6.753 6.753 0 0 1 .812.929c.406.581.812 1.278 1.1 1.685a5.456 5.456 0 0 1 .58.987 5.453 5.453 0 0 1 .58-.987c.29-.407.7-1.1 1.1-1.684a6.753 6.753 0 0 1 .812-.929c.22-.235.532-.63.986-1.1.348-.363.662-.623 1.1-1.046.5-.477.979-1 1.451-1.452.784-.745 1.451-1.309 1.451-1.336a26.716 26.716 0 0 0 -2.367 1.277zm5.28-1.394a19.061 19.061 0 0 0 -4.062 3.137 30.475 30.475 0 0 1 -2.669 2.73c-.406.29-.415 1.267-.7 1.51a8.182 8.182 0 0 0 -2.956 5.107 8.182 8.182 0 0 0 -2.959-5.111c-.281-.243-1.276-1.279-1.683-1.569a30.461 30.461 0 0 1 -2.669-2.73 19.061 19.061 0 0 0 -4.062-3.137c-.348-.058-1.218-.755-1.393-.7 0 0 4.99 4.937 6.441 8.887l.464-.813c2.611 1.8 4.352 4.879 5.86 8.771a38.1 38.1 0 0 1 2.611-5.344 7.31 7.31 0 0 1 2.148-2.844l.464.813c1.451-3.95 6.557-9.41 6.557-9.41-.174-.056-1.044.641-1.392.697zm-3.079-13.822a10.223 10.223 0 0 0 -2.55-2.579 7.873 7.873 0 0 0 -4.757-1.552 10.347 10.347 0 0 0 -7.079 3.311 11.22 11.22 0 0 0 -2.321.232c-.232.232.044 1.668-.232 1.917-2.843 2.556-5.871 3.291-7.833 2.73-.406-.116 3.423-3.427 3.83-3.834.18-.18 1.138-1.153 2.031-2.149 1.123-1.252 2.2-2.556 2.2-2.556-.29.174-.87.7-1.1.871a11.639 11.639 0 0 0 -.928.813c-.232.232-1.16.755-1.392.987s-1.741 1.452-2.2 1.8-1.044.755-1.451 1.046-2.209 1.629-2.674 1.979a14.514 14.514 0 0 1 -2.089 1.394 5.263 5.263 0 0 0 1.683 1.626c1.567 1.22 3.656 2.962 4.12 3.137a18.011 18.011 0 0 1 2.263 1.8 33.627 33.627 0 0 1 -2.2-2.846c-.565-.926-1.49-2.778-2.379-3.253 1.219 0 4.236.639 7.253-.581 1.549-.626 1.741-1.046 2.147-1.046a9.915 9.915 0 0 0 2.263.058c.348-.174.232-2.207.348-2.323s2.843-2.382 5.744-2.382a8.587 8.587 0 0 1 4.062.8 6.989 6.989 0 0 1 1 .5 13.473 13.473 0 0 1 3.866 4.8 8.8 8.8 0 0 0 -1.625-4.7z" fill="#8AD1FF" fill-rule="evenodd"/></svg>