<svg height="48" viewBox="0 0 48 48" width="48" xmlns="http://www.w3.org/2000/svg"><path d="m13.456 15.315a6.907 6.907 0 1 1 6.96-6.907 6.942 6.942 0 0 1 -6.96 6.907zm0-12.936a6.029 6.029 0 1 0 6.075 6.029 6.059 6.059 0 0 0 -6.075-6.03zm-.087 9.5a3.843 3.843 0 1 1 3.872-3.843 3.862 3.862 0 0 1 -3.871 3.842zm0-6.983a3.141 3.141 0 1 0 3.164 3.141 3.156 3.156 0 0 0 -3.163-3.142zm26.393 21.804a3.19 3.19 0 1 1 3.215-3.19 3.206 3.206 0 0 1 -3.215 3.19zm0-5.759a2.569 2.569 0 1 0 2.589 2.569 2.582 2.582 0 0 0 -2.589-2.569zm-15.217 27.066a4.244 4.244 0 1 1 4.276-4.244 4.265 4.265 0 0 1 -4.276 4.244zm0-7.844a3.6 3.6 0 1 0 3.627 3.6 3.618 3.618 0 0 0 -3.627-3.6zm2.492-21.312c-4.585.012-3.344 4.393-7.516 4.391 1.474 3.159 7.243.628 7.252 4.29 3.245-3.001-2.696-5.863.263-8.681zm-20.837-6.47a17.855 17.855 0 0 0 -1.561 2.787 15.614 15.614 0 0 0 -1.593 6.556 11.264 11.264 0 0 0 .236 3.1c.078-1-.279-7.127 3.91-11.2a8.549 8.549 0 0 1 -.992-1.243zm26.16 9.343c0 4.09-.531 5.444-2.772 8.429 2.921-1.857 3.889-3.037 4.6-5.3 3.2-8.41.956-12.362-2.15-15.466-3.208-3.206-7.689-4.789-8.4-7.973-.152 2.12 2.909 5.06 5.429 7.986a15.709 15.709 0 0 0 -7.61-3.668 8.647 8.647 0 0 1 -.145 4.477c6.425 1.047 11.048 5.249 11.048 11.515zm12.563-.7c-.236 7.961-6.429 13.112-10.853 13.054a11.959 11.959 0 0 0 5.553-5.994 4.543 4.543 0 0 1 -2.909-1.465c-1.953 3.338-4.894 5.586-8.13 5.586-4.882 0-7.512-1.116-9.5-2.283a12.572 12.572 0 0 1 -4.365-4.1c-.767 1.932 1.486 5.237 4.046 7.266l-.065-.009q.27.186.54.363a13.6 13.6 0 0 0 2.23 1.316 18.761 18.761 0 0 0 8.357 2.479 15.551 15.551 0 0 0 11.56-5.21 18.569 18.569 0 0 0 1.413-2.166c.526-.789 2.595-5.093 2.123-8.839zm-5.86-1.815a4.582 4.582 0 0 1 1.023-.116 4.4 4.4 0 0 1 .963.1c-.005-.169-.011-.339-.019-.511.354-14.343-14.088-18.682-16.043-18.675 11.262 3.536 14.78 11.893 14.076 19.2zm-9.5 24.908a5.177 5.177 0 0 1 -.185 1.374c3.535-.162 6.488-1.376 7.823-3.745a12.054 12.054 0 0 1 -7.638 2.345c-.005.009-.005.015-.005.023zm-16.663-10.917a13.98 13.98 0 0 1 .059-7.961 15.374 15.374 0 0 1 13.562-10.129c-5.367-3.863-31.142 7.9-15.512 26.458-5.781-8.312-2.891-13.468-2.891-13.468a15.671 15.671 0 0 0 6.606 12.761 22.849 22.849 0 0 0 4.383 2.547 5.151 5.151 0 0 1 .692-1.965c-3.412-1.982-6.152-4.943-6.899-8.243zm12.828 10.6a1.091 1.091 0 1 1 -1.091-1.083 1.087 1.087 0 0 1 1.087 1.075z" fill="#F89C9C" fill-rule="evenodd"/></svg>