<svg xmlns="http://www.w3.org/2000/svg" width="20" height="20" viewBox="0 0 20 20">
  <defs>
    <style>
      .cls-1 {
        fill: #cdbe91;
        fill-rule: evenodd;
      }
    </style>
  </defs>
  <path id="Worlds" class="cls-1" d="M14.02,2.2l0.132,0.328A21.414,21.414,0,0,0,15.29,5.05l0.518,0.929,0.354,0.093,0.827,0.218,0.34,0.8,0.749,1.765a18.652,18.652,0,0,0,.91-5.761V2.2H14.02ZM2.674,7.092l0.34-.8L3.84,6.073l0.354-.093L4.713,5.05A21.394,21.394,0,0,0,5.851,2.531L5.983,2.2H1.015V3.1a18.651,18.651,0,0,0,.91,5.761ZM17.5,10.8l-0.03-.025-0.752-.635L15.727,7.8l-2.592-.683a1.688,1.688,0,0,0-.141-0.1l0.779-1.086C12.192,3.1,11.926.154,10,.005,8.076,0.154,7.811,3.1,6.23,5.936L7.009,7.022a1.662,1.662,0,0,0-.141.1L4.276,7.8l-0.99,2.334-0.752.635L2.5,10.8A2.408,2.408,0,0,0,2.338,14.3a2.264,2.264,0,0,0,2.754.4c0.294,0.365.6,0.723,0.922,1.066L10,19.995l3.987-4.228c0.324-.344.628-0.7,0.922-1.066a2.264,2.264,0,0,0,2.754-.4A2.408,2.408,0,0,0,17.5,10.8ZM10,3.512C10.02,3.5,11.582,1.293,12.4,5.24L10,7.284,7.6,5.24C8.421,1.293,9.982,3.5,10,3.512Zm-4.855,9.98a1.422,1.422,0,0,1-2.191.18,1.5,1.5,0,0,1,.1-2.184L7.392,7.833a0.8,0.8,0,0,1,.513-0.189H9.762S6.614,11.408,5.146,13.492Zm7.246-.2V14.7L10,16.113,7.61,14.7V11.875L10,10.462l2.391,1.413v1.413Zm4.655,0.385a1.422,1.422,0,0,1-2.191-.18c-1.468-2.083-4.615-5.847-4.615-5.847H12.1a0.8,0.8,0,0,1,.513.189l4.334,3.655A1.5,1.5,0,0,1,17.047,13.672Z"/>
</svg>
