<?xml version="1.0" encoding="utf-8"?>
<!-- Generator: Adobe Illustrator 24.3.0, SVG Export Plug-In . SVG Version: 6.00 Build 0)  -->
<svg version="1.1" id="Layer_1" xmlns="http://www.w3.org/2000/svg" xmlns:xlink="http://www.w3.org/1999/xlink" x="0px" y="0px"
	 viewBox="0 0 20 20" style="enable-background:new 0 0 20 20;" xml:space="preserve">
<style type="text/css">
	.st0{fill-rule:evenodd;clip-rule:evenodd;fill:#CDBE91;}
	.st1{fill:#CDBE91;}
</style>
<g>
	<path class="st0" d="M10.2,11.1l-1.7,1l1.7,1C10.2,13.2,10.2,11.1,10.2,11.1z"/>
	<g>
		<path class="st1" d="M3.6,7.4l0.3-0.7l0.7-0.2l0.3-0.1l0.5-0.8c0.4-0.7,0.7-1.5,1-2.3L6.5,3H2.1v0.8c0,1.8,0.3,3.5,0.8,5.2
			L3.6,7.4z"/>
		<path class="st1" d="M13.8,3l0.1,0.3c0.3,0.8,0.6,1.5,1,2.3l0.5,0.8l0.3,0.1l0.7,0.2l0.3,0.7L17.5,9c0.5-1.7,0.8-3.4,0.8-5.2V3
			H13.8z"/>
		<path class="st1" d="M17,10.8C17,10.8,17,10.8,17,10.8l-0.1-0.1l-0.7-0.6L15.3,8L13,7.4c0,0-0.1-0.1-0.1-0.1l0.7-1
			c-1.4-2.6-1.7-5.2-3.4-5.3c-1.7,0.1-2,2.8-3.4,5.3l0.7,1c0,0-0.1,0.1-0.1,0.1L5,8l-0.9,2.1l-0.7,0.6l0,0c-0.9,0.8-1,2.2-0.2,3.1
			c0,0,0.1,0.1,0.1,0.1c0.6,0.7,1.7,0.8,2.5,0.4c0.3,0.3,0.5,0.7,0.8,1l3.6,3.8v-2.5l3.1-1.8v-1.5l1.5,1.1c0.8,0.4,1.8,0.2,2.4-0.4
			C17.9,13,17.9,11.7,17,10.8z M10.1,3.6V1.8c0.9-0.1,1.5,1.5,1.5,1.5l1.1,2.9c-0.6-0.1-2.6,1.5-2.6,1.5C9.3,6.8,7.7,6.2,7.6,6.2
			C8.2,2.4,10.1,3.6,10.1,3.6z M5.8,13.2L5.8,13.2c-0.4,0.6-1.2,0.7-1.8,0.3c-0.1,0-0.1-0.1-0.2-0.2c-0.5-0.5-0.5-1.4,0-1.9
			c0,0,0,0,0.1-0.1l3.9-3.3c0.1-0.1,0.3-0.2,0.5-0.2H10C10,7.9,7.1,11.3,5.8,13.2z M12.3,13L12.3,13v1.3l-2.2,1.3L8,14.3v-2.5
			l2.2-1.3l2.2,1.3V13z M16.6,13.3C16.6,13.3,16.5,13.3,16.6,13.3L16.6,13.3c-0.5,0.6-1.4,0.6-1.9,0.1c-0.1-0.1-0.1-0.1-0.2-0.2
			c-1.3-1.9-4.2-5.3-4.2-5.3h1.7c0.2,0,0.3,0.1,0.5,0.2l3.9,3.3C17,11.8,17.1,12.7,16.6,13.3z"/>
	</g>
	<g>
		<path class="st1" d="M8.6,4c0,0,0.1,0.8,0.2,1.1c0,0,0.5,0.3,0.7,1.5c0-0.1,0.2,0.2,0.5,0.2h0.1h0.1V4.1C10.2,4.1,9,4.1,8.6,4z"/>
		<path class="st1" d="M11.5,4c0,0-0.1,0.8-0.2,1.1c0,0-0.5,0.3-0.7,1.5c0-0.1-0.2,0.2-0.5,0.2h-0.1H10V4.1C10,4.1,11.2,4.1,11.5,4z
			"/>
	</g>
	<path class="st1" d="M3.3,3.5l1-1.7l1.1,1.7C5.4,3.5,3.3,3.5,3.3,3.5z"/>
	<path class="st1" d="M14.9,3.5l1-1.7L17,3.5C17,3.5,15,3.5,14.9,3.5z"/>
</g>
</svg>
