<?xml version="1.0" encoding="utf-8"?>
<svg version="1.1" xmlns="http://www.w3.org/2000/svg" xmlns:xlink="http://www.w3.org/1999/xlink" x="0px" y="0px" viewBox="0 0 16 18" style="enable-background:new 0 0 16 18;" xml:space="preserve">
	<path d="M10.2,12.9c-1.9,0-3.9-2.8-4.5-3.6l0.6-1.4c0.6,0.9,3.1,4.2,4.8,4.2c0.2,0,0.4-0.1,0.6-0.2 C11.5,12.5,10.9,12.9,10.2,12.9z M11.7,17c-0.6,0-1.3-0.2-1.9-0.4c-0.6,0.1-1.2,0.2-1.8,0.2c-2.3,0-4.5-1.1-5.9-2.9 c-0.2-0.5-0.2-1-0.2-1.5s0.1-1.1,0.2-1.6c0.4,0.8,0.9,1.5,1.5,2.1v0.8c1.2,1.1,2.7,1.8,4.4,1.9c0,0-4.8-3.4-6.4-8.1 c0,0-0.6,0.6-0.9,3.7c-0.2-0.7-0.2-1.3-0.2-2c0-2.5,0.8-3.1,0.8-3.1C1.1,5.6,1,5.1,1,4.6C0.8,2.8,2.2,1.2,4,1c0.1,0,0.2,0,0.3,0h2.1 C5.7,1.1,5,1.5,4.5,2h-1c-0.5,0-1,0.1-1,2c0,1.3,0.2,2.5,0.6,3.8l0.1-0.3C3.9,5.6,5.3,4,7,3V2.7c-2.2,0-3.9,2.4-3.9,2.4 C2.9,4.7,2.9,4.3,2.8,3.9c1.4-1.4,3.3-2.1,5.3-2.1c0.8,0,1.5,0.1,2.2,0.4c-0.5,0.1-1,0.2-1.5,0.5c1.9,1.5,3.6,3.3,4.8,5.4 c0.3,0.8,0.3,1.7,0,2.5c-0.6-1.5-1.4-2.8-2.4-4S9.1,4.3,8,3.3C6,5,4.7,7.3,4.1,9.8c0,0,4.6,6.2,8.4,6.2c1,0.1,1.9-0.5,2-1.5 c0-0.2,0-0.3,0-0.5c0-0.3,0-0.5-0.1-0.8c-0.3,0.5-0.6,0.9-1,1.3c-0.3,0.4-0.7,0.8-1.2,1.1c-0.3-0.1-1.4-0.6-1.4-0.6s3.8-1.9,3.8-5.8 c0-4.2-4-6.1-4-6.1c0.3-0.2,0.7-0.3,1-0.4C12.2,3,12.8,3.5,13.3,4c0.7,0.7,1.2,1.5,1.6,2.4c0.4,0.9,0.6,1.9,0.6,2.9 c0,0.8-0.1,1.7-0.4,2.5c0.1,0.7,0.1,1.4,0.1,2.1C15.2,17.1,12.3,17,11.7,17z M11.2,11C10.4,9,9,7.3,7.3,6l0.5-0.5 c1.8,1.3,3.1,3.1,4,5.1L11.2,11z" />
</svg>
