<?xml version="1.0" encoding="utf-8"?>
<svg version="1.1" xmlns="http://www.w3.org/2000/svg" xmlns:xlink="http://www.w3.org/1999/xlink" x="0px" y="0px" viewBox="0 0 16 18" style="enable-background:new 0 0 16 18;" xml:space="preserve">
	<path d="M14,15v-2c0.7-0.8,1.1-1.9,1-3V9c-1.2-1.4-1.9-3.1-2-5l-1,2c0,0,1,0.6,1,3c0,1.3-0.8,2.5-2,3c-0.5,0-1-0.4-1-1l0,0 c-0.6,0.5-0.9,1.2-1,2v2h1l1,1c0.4-0.9,1.1-1.6,2-2L14,15z M9,8c0-1.4,1-1,1-1C8.8,4.8,8.2,2.4,8,0c0,1.1-0.4,2.1-1,3v1 c0,1.1-0.4,2.1-1,3c0,0,1-0.3,1,1c0,0.8-0.4,1.5-1,2c0.9,0.8,1.6,1.9,2,3c0.4-1.1,1.1-2.2,2-3C9.3,9.5,9,8.8,9,8z M2,15v-2 c-0.7-0.8-1.1-1.9-1-3V9c1.2-1.4,1.9-3.1,2-5l1,2c0,0-1,0.6-1,3c0,1.3,0.8,2.5,2,3c0.5,0,1-0.4,1-1l0,0c0.6,0.5,0.9,1.2,1,2v2H6 l-1,1c-0.4-0.9-1.1-1.6-2-2L2,15z" />
</svg>
