<?xml version="1.0" encoding="utf-8"?>
<svg version="1.1" xmlns="http://www.w3.org/2000/svg" xmlns:xlink="http://www.w3.org/1999/xlink" x="0px" y="0px" viewBox="0 0 16 18" style="enable-background:new 0 0 16 18;" xml:space="preserve">
  <path d="M8,1C7.4,1.5,7.1,2.2,7,3c0.6,0.9,1,1.9,1,3c0.8,0.5,1.5,1.2,2,2h1l2-1V6c-1.6-0.2-2.8-1.4-3-3L8,1z M11,9v1h2 l1-1V8C13.2,8.7,12.1,9.1,11,9z M10,10c0.2,0.5,0.5,0.8,1,1c0.9,0,1.7,0,2,0l-2,2l-1,1l-1-2C9.3,11.3,9.6,10.6,10,10z M4,4h1 c1.4,0.9,2.1,2.4,2,4H6L4,7V6C4,6,4.9,5.3,4,4z M2,9c0.3-0.4,0.6-0.7,1-1c1,1,4,2,4,2l1,1c0,0-1,2,2,5l-2,1l-1-2 c-0.1-1.3-0.8-2.4-2-3L2,9z" />
</svg>
